<svg xmlns="http://www.w3.org/2000/svg" viewBox="0 0 355.6 355.34"><defs><style>.cls-1{fill:#fff;}</style></defs><g id="Layer_2" data-name="Layer 2"><g id="Layer_1-2" data-name="Layer 1"><g id="Layer_2-2" data-name="Layer 2"><g id="File"><path class="cls-1" d="M355.57,175.44A187.82,187.82,0,0,0,339.7,191q-18.81,23.92-37.06,48.54c-20.93,28.2-42.1,56.11-69.39,78.69C178,363.94,102.3,367.83,47.78,327.62,20.4,307.42,6.21,279.69,1.53,246.45-10.78,159.51,52.58,44.93,146.61,8.84c30-11.54,60.38-12.57,89.82,1.62,40,19.25,54.43,57,51.16,98.48s-24.34,70.27-62.44,86.9c-11.51,5-22.76,10.69-34.18,16-35.38,16.4-66.89,36.24-70.27,80.52-34-11.51-42-57.88-16.61-95.06-13.57-13.63-19-29.77-10.51-48.52a45.78,45.78,0,0,1,26.77-25.85,51.12,51.12,0,0,1,.76,6c-.35,21.58,7.83,31.7,29.44,33.47a139.72,139.72,0,0,0,88.09-22.26,42.73,42.73,0,0,0,7.53-6.36c7.8-8,8.22-14.1,1.5-23C231.33,89,208.16,81.62,182.61,83.38c-47,3.24-86.23,23.26-117,59.15a74.59,74.59,0,0,0-18.11,37.36c-3.15,20.6,3.5,37.94,18.55,51.9a24.46,24.46,0,0,1,8.68,18.46c1.33,25.79,25.35,53.37,50.52,59.35a14.45,14.45,0,0,0,3.83,0c2.65-11.78,5-23.05,7.8-34.27,1.65-6.77,4.89-9.45,13-7.36a97.52,97.52,0,0,0,82.44-14.4c20.25-14.16,38.71-31,57.08-47.66,21.49-19.46,42-39.95,62.91-60.12a9.86,9.86,0,0,0,3.3-5.88Z"/></g></g></g></g></svg>