<svg xmlns="http://www.w3.org/2000/svg" xmlns:xlink="http://www.w3.org/1999/xlink" viewBox="0 0 370.43 320.13"><defs><style>.cls-1{fill:none;}.cls-2{isolation:isolate;}.cls-3{fill:#fae5d2;}.cls-4{fill:#fff;}.cls-5{fill:#596da0;}.cls-6{fill:#d7d8dc;}.cls-7{fill:#1a2e36;}.cls-8{fill:#e36743;}.cls-9{fill:#f8bf66;}.cls-10{fill:#f8b866;}.cls-11{fill:#353a57;}.cls-12{fill:#ff7c1d;}.cls-13{fill:#939e66;}.cls-14{fill:#e1cac5;}.cls-15,.cls-25{fill:#ffabca;}.cls-16{clip-path:url(#clip-path);}.cls-17{fill:#e1a32a;}.cls-18{fill:#6a433e;}.cls-19{fill:#ff7013;}.cls-20{fill:#4d5e8a;}.cls-21{fill:#d9af9e;}.cls-22{fill:#9aaff3;}.cls-23{fill:#e2e5f2;}.cls-24{fill:#84715f;}.cls-25{opacity:0.5;mix-blend-mode:multiply;}.cls-26{fill:#c27c49;}.cls-27{opacity:0.2;}</style><clipPath id="clip-path"><path id="SVGID" class="cls-1" d="M70.62,189.71c0,2.49,14.77,4.51,33,4.51s33-2,33-4.51c31.19-26.27,35.24-98.16-30.39-98.16S46.16,161.67,70.62,189.71Z"/></clipPath></defs><g class="cls-2"><g id="Layer_2" data-name="Layer 2"><g id="OBJECTS"><path class="cls-3" d="M354.7,271.47C405.17,215.89,315.53,167.8,344,113.26c31.1-59.48,14.77-80.69,1-92.48-23-19.66-50.45.56-72-7.5-100.32-37.51-102.59,18.28-150.91,0C96,3.39,48.17-5.4,29,18.76,3.68,50.52,34.33,95.37,20.16,135.63S-18.13,227,22.29,271.47Z"/><path class="cls-4" d="M308.39,65.6c9.17,2.5,3.85,4.38,10.43,6.79s2.87,5.46-3.37,3.93-4.15,3.94-13.29,2.19-8.58-3.94-18.49-3.28-12.19-1.84-4.38-3,8.87-5.75,14.14-4.44S300.36,63.42,308.39,65.6Z"/><path class="cls-4" d="M86.09,72.08c15.07,4.11,6.33,7.2,17.15,11.16s4.72,9-5.55,6.48-6.82,6.47-21.85,3.59-14.12-6.47-30.41-5.39-20.06-3-7.2-4.93,14.58-9.47,23.25-7.31S72.87,68.49,86.09,72.08Z"/><path class="cls-4" d="M113.69,45.39c7.64,2.08,3.21,3.65,8.7,5.66s2.39,4.56-2.81,3.28-3.46,3.28-11.09,1.82-7.15-3.28-15.41-2.73-10.17-1.53-3.65-2.5,7.39-4.8,11.79-3.7S107,43.57,113.69,45.39Z"/><path class="cls-5" d="M323.68,136.89c.35-1.41.27-1.79-1.14-2.13l-80.5-20c-1.9-.47-4.83-.31-5.3,1.6l-26.55,107.5c-.64,2.58-1.15,3.45,2.2,7.15L220,238.1l74.27,17.82Z"/><rect class="cls-6" x="319.92" y="135.4" width="2.38" height="5.3" transform="translate(42.47 -72.97) rotate(13.87)"/><path class="cls-4" d="M248.43,122.91,331,143.56c-1.5-.23-13.83-4.63-8.12-7.8L241.29,115.6a1.69,1.69,0,0,0-2,1,2,2,0,0,0-.09.43C239.05,119,242.75,121.31,248.43,122.91Z"/><path class="cls-5" d="M304,258.85,220,238.1,248.48,123l84,20.74a2.62,2.62,0,0,1,1.92,3.18l-27.17,110A2.65,2.65,0,0,1,304,258.85Z"/><path class="cls-7" d="M210.5,222.45a17.25,17.25,0,0,0,7.93,9.35,24.13,24.13,0,0,0,5.79,2.36c2,.61,4,1.15,6,1.69,8.09,2.13,16.24,4.05,24.38,6,16.29,3.83,32.62,7.48,49,11.07l-.19.12,26.17-105.38.12.2-82.38-20.47h0a51.4,51.4,0,0,1-6.39-3,23.58,23.58,0,0,1-2.95-1.91,5.21,5.21,0,0,1-2.08-2.75,5.17,5.17,0,0,0,2.1,2.73,22.8,22.8,0,0,0,3,1.9,51.83,51.83,0,0,0,6.39,2.92h0l82.44,20.23.15,0,0,.16L303.73,253.09l0,.15-.15,0q-24.51-5.43-49-11.16c-8.15-1.93-16.28-3.9-24.36-6.07-2-.55-4-1.1-6-1.73a24,24,0,0,1-5.79-2.39A17.31,17.31,0,0,1,210.5,222.45Z"/><polygon class="cls-8" points="261.88 121.85 276.47 125.45 275.84 115.07 261.44 117.24 261.88 121.85"/><polygon class="cls-9" points="308.23 135.62 293.98 132.1 302.23 118.47 313.15 128.28 308.23 135.62"/><polygon class="cls-7" points="316.85 137.74 309 135.91 301.18 134.02 285.53 130.23 269.92 126.3 262.11 124.33 254.32 122.3 262.16 124.13 269.99 126.02 285.63 129.81 301.25 133.75 309.06 135.71 316.85 137.74"/><path class="cls-7" d="M286.12,127.84c-2.85-.63-5.69-1.27-8.53-1.94l-8.5-2.05-8.48-2.15c-2.83-.72-5.64-1.48-8.46-2.25,2.85.62,5.7,1.26,8.53,1.94l8.51,2,8.48,2.14Q281.9,126.68,286.12,127.84Z"/><path class="cls-10" d="M249,64.15c0-2.18-.21-2.71-2.15-2.71l-110.52-.15c-2.61,0-6.35,1.3-6.35,4.25V232.29c0,4-.38,5.47,5.14,9.67l12.11,7.6L249,248.79Z"/><rect class="cls-6" x="244.49" y="62.78" width="3.17" height="7.98"/><path class="cls-4" d="M147.21,70.88l113.43.37c-2,.21-19.36-1.77-13-8.47h-112A2.34,2.34,0,0,0,133.39,65a2.84,2.84,0,0,0,0,.66C133.84,68.59,139.36,70.59,147.21,70.88Z"/><path class="cls-9" d="M262.52,249.56H147.25L147.3,71H262.52a3.75,3.75,0,0,1,3.5,4V245.6A3.75,3.75,0,0,1,262.52,249.56Z"/><path class="cls-7" d="M130,230.11a21.64,21.64,0,0,0,5.32,6.45,23.54,23.54,0,0,0,7.25,4.17c.67.22,1.33.47,2,.65s1.36.34,2.05.48l2.09.24a18.23,18.23,0,0,0,2.09.19l4.2.22,4.21.11c11.21.23,22.43.12,33.65,0,22.44-.29,44.87-.84,67.3-1.51l-.13.13,0-81.75.17-81.76.13.14-113.1-.12h0a60.76,60.76,0,0,1-9.34-2,26.89,26.89,0,0,1-4.43-1.76A7,7,0,0,1,130,70.76a7,7,0,0,0,3.44,3.17,27.31,27.31,0,0,0,4.44,1.75,63.33,63.33,0,0,0,9.33,2h0l113.1-.12h.14v.13l0,81.76-.17,81.75v.13h-.13c-22.43.62-44.87,1.12-67.31,1.37-11.22.11-22.44.2-33.66-.06l-4.2-.11-4.2-.23a21,21,0,0,1-2.1-.19l-2.09-.25c-.69-.14-1.37-.33-2-.49s-1.33-.43-2-.64a23.91,23.91,0,0,1-7.25-4.2A21.65,21.65,0,0,1,130,230.11Z"/><polygon class="cls-8" points="164.27 64.48 184.29 64.48 180.16 49.53 162.22 57.89 164.27 64.48"/><polygon class="cls-5" points="228.63 67.87 209.07 67.87 215.39 39.9 232.65 50.29 228.63 67.87"/><polygon class="cls-7" points="240.45 67.87 229.73 67.97 219 68.01 197.55 68.08 176.09 68.01 165.37 67.97 154.64 67.87 165.37 67.76 176.09 67.72 197.55 67.65 219 67.72 229.73 67.76 240.45 67.87"/><path class="cls-7" d="M197.55,64.48c-3.89.08-7.77.13-11.66.16l-11.66,0-11.65,0c-3.89,0-7.77-.08-11.66-.16,3.89-.08,7.77-.14,11.66-.17l11.65,0,11.66,0C189.78,64.34,193.66,64.4,197.55,64.48Z"/><path class="cls-11" d="M206.64,182.32s-1.21,5.33-4.35,5.16l-.1-5Z"/><path class="cls-12" d="M202.14,195.12S211.41,204,213.05,210l-7,2.81L195.81,204"/><path class="cls-11" d="M191.78,178.12c-1.71,1.81-4.17,8.79,0,10.3s7.71-6.54,5.37-8.45S195.14,175.14,191.78,178.12Z"/><path class="cls-11" d="M179.65,215.69s-5,8.63,9.58,8.19c10.67-.32,8.14-9.65,8.14-9.65S190.74,217.78,179.65,215.69Z"/><path class="cls-11" d="M177.43,217.54c-.29,6.36-3,12.05-2.45,18.93,2.41,1.62,9.47,2.23,12.76,1.19l1.87-16.3Z"/><path class="cls-11" d="M197.45,219l-10.74,4.56a77.27,77.27,0,0,0,1.91,14.38c2.82.19,10.07.26,11.82-1.08Z"/><path class="cls-13" d="M185.85,217.79,174.9,215.6a5.41,5.41,0,0,1-4.23-6.34l4.41-16.61a5.41,5.41,0,0,1,6.34-4.23l11,2.2A5.41,5.41,0,0,1,196.6,197l-4.41,16.61A5.4,5.4,0,0,1,185.85,217.79Z"/><path class="cls-13" d="M190.26,218.68l-11-2.2a5.4,5.4,0,0,1-4.22-6.34l4.41-16.61a5.41,5.41,0,0,1,6.34-4.22l11,2.2a5.4,5.4,0,0,1,4.22,6.33l-4.41,16.62A5.41,5.41,0,0,1,190.26,218.68Z"/><path class="cls-4" d="M195.69,198.11a22.66,22.66,0,0,1-7.07-7c1.59.19,3.44.58,5.58,1s3.58.42,4.68.69C196.7,195.07,196.59,199,195.69,198.11Z"/><path class="cls-12" d="M181.41,191.57c1.49-1.09,4.73-.78,7.21-.48a22.66,22.66,0,0,0,7.07,7c.9.91,1-3,3.19-5.34a5.87,5.87,0,0,1,3.26,2.35c2.09,2.5.06,4.94-1.39,9.65-1.36,4.38-1.1,10.24-1.69,18.72-12,7.27-20.21,1.1-22.8,0C177.58,219.05,176.26,195.33,181.41,191.57Z"/><path class="cls-13" d="M196.89,192.44s2.28,1.53,3.11,5.77c.19,1-.26,6.89-.35,13.13a34.63,34.63,0,0,0,3-9.45c.32-4-1-6.31-3.49-9.21C196.87,192.34,196.89,192.44,196.89,192.44Z"/><path class="cls-14" d="M204.12,186.52a10.78,10.78,0,0,0-.59,1.41c-.62,1.81-2.18,5-5.31,4.8-4.38-.28-7.28-3.53-6.87-8.13s3-7.41,7.39-6.85C207.3,178.84,205.09,184.62,204.12,186.52Z"/><path class="cls-14" d="M190.32,191.74l1.26-5.51a3.41,3.41,0,0,1,4-2.66h0a3.4,3.4,0,0,1,2.67,4l-.8,5.86C197.08,195.27,190,193.57,190.32,191.74Z"/><path class="cls-11" d="M193.18,182.54c.71.44,1,1.1.83,2.4s1.64-.54,1.9-2.5.62-1.29,4.17,1.06a5.38,5.38,0,0,0,7-.5c2.82-2.42-3.15-9.89-8.17-9s-6,1.2-7,3.25-2.74,7.2-.66,9.24C191.29,181.61,193.18,182.54,193.18,182.54Z"/><path class="cls-12" d="M185.23,204l-9,4.83-6.64-3.66c2.38-5.76,11.79-13.59,11.79-13.59"/><path class="cls-7" d="M177.29,208.44a8.51,8.51,0,0,1,1.38-1.37,8.22,8.22,0,0,1,1.65-1,8.51,8.51,0,0,1-1.38,1.37A8.22,8.22,0,0,1,177.29,208.44Z"/><path class="cls-13" d="M181.34,190.44s3.95,3.58,2.95,10.52-4.67,10.46-7.35,11c-.16,1.43-.4,3-.4,3s8.15-2.15,11-13.09c.86-3.46.24-8.56-2.27-11.46A9.42,9.42,0,0,0,181.34,190.44Z"/><path class="cls-7" d="M198.88,194.67q-1.26,2.51-2.61,5l-.09.16-.15-.08a20.21,20.21,0,0,1-4.91-3.74,21.13,21.13,0,0,1-2-2.34,22.8,22.8,0,0,1-1.68-2.58c.59.84,1.22,1.64,1.87,2.42s1.37,1.51,2.08,2.23a25.5,25.5,0,0,0,2.29,2,19,19,0,0,0,2.51,1.69l-.24.07Q197.38,197,198.88,194.67Z"/><path class="cls-7" d="M188,198.7a7.25,7.25,0,0,1-1.79.22,7.39,7.39,0,0,1-1.8-.22,7.9,7.9,0,0,1,1.8-.21A7.75,7.75,0,0,1,188,198.7Z"/><path class="cls-7" d="M187,203.53a5.36,5.36,0,0,1-1.6,0,5.69,5.69,0,0,1-1.54-.42,5.36,5.36,0,0,1,1.6,0A6.08,6.08,0,0,1,187,203.53Z"/><path class="cls-7" d="M199.82,204a3.74,3.74,0,0,1,2.47,0,3.34,3.34,0,0,1-1.24.21A3.54,3.54,0,0,1,199.82,204Z"/><path class="cls-7" d="M202.75,200.19a3.81,3.81,0,0,1-1.36.23,4.27,4.27,0,0,1-1.36-.23,4.27,4.27,0,0,1,1.36-.2A5,5,0,0,1,202.75,200.19Z"/><path class="cls-7" d="M197.26,192.74a4.59,4.59,0,0,1-2.47-.75,4,4,0,0,1-.94-.94,2.51,2.51,0,0,1-.36-1.26,3.85,3.85,0,0,0,1.54,1.85A11.29,11.29,0,0,0,197.26,192.74Z"/><path class="cls-7" d="M199.09,186.19c-.11.49-.48.83-.83.75a.82.82,0,0,1-.43-1c.11-.49.49-.83.83-.75A.8.8,0,0,1,199.09,186.19Z"/><path class="cls-7" d="M203.29,187.13c-.11.49-.42.84-.69.78s-.4-.51-.29-1,.42-.84.69-.77S203.4,186.64,203.29,187.13Z"/><path class="cls-7" d="M200.39,187.91a1,1,0,0,1,.55-.22.57.57,0,0,1,.59.4,1,1,0,0,1-.11.64,1.45,1.45,0,0,1-.39.43c0-.21.06-.38.08-.54a.86.86,0,0,0,0-.42c0-.08-.06-.13-.21-.18A5.2,5.2,0,0,0,200.39,187.91Z"/><path class="cls-7" d="M198.83,189.61a.84.84,0,0,0,.37.32,2,2,0,0,0,.44.12,9.47,9.47,0,0,1,1.05.17,1.57,1.57,0,0,1-1.12.24,1.17,1.17,0,0,1-.56-.27A.57.57,0,0,1,198.83,189.61Z"/><path class="cls-7" d="M198,183.85a.51.51,0,0,1,.53-.33.63.63,0,0,1,.52.34,1.49,1.49,0,0,1-.54.08A3.46,3.46,0,0,1,198,183.85Z"/><path class="cls-7" d="M202.8,185a.69.69,0,0,1,.64,0,.63.63,0,0,1,.4.52,1.7,1.7,0,0,1-.57-.14A1.31,1.31,0,0,1,202.8,185Z"/><path class="cls-15" d="M198.48,189.11a1.12,1.12,0,1,1-.82-1.43A1.16,1.16,0,0,1,198.48,189.11Z"/><path class="cls-15" d="M202.2,190.36c-.26.62-.71,1-1,.89s-.35-.73-.1-1.35.71-1,1-.89S202.45,189.74,202.2,190.36Z"/><path class="cls-7" d="M199.82,205.52a16.35,16.35,0,0,1-3.36.9,23.36,23.36,0,0,1-7,.12,22.19,22.19,0,0,1-3.41-.7c1.15.14,2.29.31,3.44.38s2.3.12,3.44.1a33.1,33.1,0,0,0,3.44-.22A28.41,28.41,0,0,0,199.82,205.52Z"/><path class="cls-7" d="M199.71,208.82a50.16,50.16,0,0,1-7.54.56c-1.27,0-2.53,0-3.79-.19a16.85,16.85,0,0,1-3.71-.75,26.28,26.28,0,0,0,3.74.43c1.25.07,2.5.1,3.76.09s2.51,0,3.76,0Z"/><path class="cls-7" d="M180.32,189.61a1.87,1.87,0,0,1,1.27.68,4.29,4.29,0,0,1,.42.6,2.51,2.51,0,0,1,.25.68,13,13,0,0,1-1-1,5.45,5.45,0,0,0-.46-.5A4.53,4.53,0,0,0,180.32,189.61Z"/><path class="cls-7" d="M184.45,189.39a6.17,6.17,0,0,1,1.1,1.19,5.72,5.72,0,0,1,.76,1.45,6.37,6.37,0,0,1-1.86-2.64Z"/><path class="cls-7" d="M201.53,178.43a8.22,8.22,0,0,0-1-.5.87.87,0,0,0-.45-.1,1.42,1.42,0,0,0-.52.12.74.74,0,0,1,.46-.44,1.09,1.09,0,0,1,.67,0A1.44,1.44,0,0,1,201.53,178.43Z"/><path class="cls-7" d="M199.14,176.08a9.22,9.22,0,0,0-1.45-.28,2.23,2.23,0,0,0-.68,0,2.53,2.53,0,0,0-.68.27,1.23,1.23,0,0,1,.57-.58,1.9,1.9,0,0,1,.82-.15A2.15,2.15,0,0,1,199.14,176.08Z"/><path class="cls-7" d="M204.72,177.28c-.33-.18-.55-.38-.82-.49a1.42,1.42,0,0,0-.4-.17c-.14-.05-.3-.06-.48-.11a.86.86,0,0,1,.51-.21,1.08,1.08,0,0,1,.56.11A1.19,1.19,0,0,1,204.72,177.28Z"/><path class="cls-7" d="M198.58,180.18c-.5-.17-.93-.42-1.39-.57a2.69,2.69,0,0,0-.67-.19,1.24,1.24,0,0,0-.7.08.9.9,0,0,1,.7-.41,1.86,1.86,0,0,1,.82.13A2.68,2.68,0,0,1,198.58,180.18Z"/><path class="cls-7" d="M194.29,178.65a1.78,1.78,0,0,0-.31.23,1.73,1.73,0,0,0-.21.25,5.22,5.22,0,0,1-.49.59.83.83,0,0,1,0-.44,1.07,1.07,0,0,1,.18-.41.89.89,0,0,1,.39-.27A.5.5,0,0,1,194.29,178.65Z"/><path class="cls-5" d="M103.62,185.2c18.23,0,33,2,33,4.51l-2.82,81.9c0,2.28-13.51,4.13-30.19,4.13s-30.19-1.85-30.19-4.13l-2.81-81.9C70.62,187.22,85.39,185.2,103.62,185.2Z"/><ellipse class="cls-13" cx="103.62" cy="189.71" rx="33.01" ry="4.51"/><g class="cls-16"><polygon class="cls-8" points="75.97 134.28 65.29 136.15 92.16 256.29 102.83 254.42 75.97 134.28"/><polygon class="cls-7" points="93.19 255.14 89.78 240.38 86.42 225.61 79.72 196.07 73.16 166.5 69.88 151.71 66.66 136.91 70.08 151.67 73.43 166.44 80.13 195.98 86.7 225.55 89.98 240.34 93.19 255.14"/><polygon class="cls-7" points="101.5 253.97 98.08 239.19 94.72 224.38 88 194.77 81.43 165.13 78.14 150.31 74.92 135.47 78.34 150.26 81.7 165.06 88.42 194.68 94.99 224.32 98.28 239.14 101.5 253.97"/><polygon class="cls-7" points="95.57 254.16 92.17 239.47 88.83 224.77 82.15 195.36 75.61 165.93 72.34 151.21 69.14 136.48 72.54 151.16 75.88 165.87 82.56 195.27 89.1 224.71 92.37 239.43 95.57 254.16"/><polygon class="cls-7" points="99.43 253.49 96.02 238.8 92.68 224.1 86 194.69 79.46 165.26 76.19 150.54 72.99 135.81 76.4 150.49 79.74 165.19 86.42 194.6 92.96 224.03 96.22 238.75 99.43 253.49"/><path class="cls-4" d="M75.94,134.16l0,.07a1.38,1.38,0,0,1-1.1,1.6,1.4,1.4,0,0,1-1.58-1.15v-.06h0v.08a1.38,1.38,0,0,1-1.09,1.6,1.4,1.4,0,0,1-1.58-1.15v-.06h0v.07a1.39,1.39,0,0,1-1.1,1.61,1.41,1.41,0,0,1-1.58-1.16v-.06h0l0,.07a1.38,1.38,0,0,1-1.1,1.6,1.35,1.35,0,0,1-1.57-1.09c-.08-.46,3.58-11.15,3.58-11.15s7,8.78,7.1,9.22v-.05Z"/><path class="cls-8" d="M67.52,128.94c.71-2.15,1.33-3.94,1.33-3.94s1.29,1.61,2.77,3.5A5.39,5.39,0,0,1,67.52,128.94Z"/><path class="cls-4" d="M102.8,254.23c-.14-.82-2.65-1.07-5.6-.55s-5.22,1.59-5.08,2.42,2.65,1.07,5.6.55S102.94,255.06,102.8,254.23Z"/><path class="cls-17" d="M99.49,254.81c0-.31-1-.41-2.13-.21s-2,.61-1.92.92,1,.4,2.12.21S99.54,255.12,99.49,254.81Z"/><polygon class="cls-9" points="93.09 117.53 82.3 118.5 99.05 240.46 109.84 239.5 93.09 117.53"/><polygon class="cls-7" points="100.18 239.4 98 224.41 95.89 209.42 91.68 179.42 87.6 149.4 85.56 134.39 83.59 119.37 85.77 134.36 87.88 149.36 92.1 179.36 96.17 209.38 98.21 224.39 100.18 239.4"/><polygon class="cls-7" points="108.55 238.94 106.38 223.91 104.26 208.88 100.04 178.81 95.96 148.72 93.92 133.68 91.95 118.63 94.13 133.65 96.24 148.69 100.46 178.75 104.54 208.84 106.58 223.88 108.55 238.94"/><polygon class="cls-7" points="102.63 238.62 100.46 223.7 98.36 208.77 94.16 178.92 90.09 149.04 88.06 134.1 86.1 119.15 88.27 134.07 90.37 149 94.58 178.86 98.64 208.74 100.67 223.68 102.63 238.62"/><polygon class="cls-7" points="106.53 238.28 104.36 223.35 102.26 208.43 98.05 178.57 93.99 148.69 91.96 133.75 90 118.8 92.17 133.72 94.27 148.65 98.47 178.51 102.54 208.39 104.57 223.33 106.53 238.28"/><path class="cls-4" d="M93.08,117.4v.08a1.36,1.36,0,1,1-2.71.22v0h0v.07a1.39,1.39,0,0,1-1.23,1.51A1.4,1.4,0,0,1,87.68,118v-.06h0V118a1.39,1.39,0,0,1-1.23,1.51A1.41,1.41,0,0,1,85,118.19v-.06h0v.07a1.39,1.39,0,0,1-1.22,1.51,1.34,1.34,0,0,1-1.47-1.22c0-.46,4.49-10.81,4.49-10.81S93,117,93.08,117.46v-.06Z"/><path class="cls-9" d="M85.11,111.5l1.66-3.82s1.15,1.72,2.47,3.73A5.42,5.42,0,0,1,85.11,111.5Z"/><path class="cls-4" d="M109.83,239.3c-.08-.83-2.55-1.28-5.53-1s-5.34,1.16-5.27,2,2.55,1.28,5.53,1S109.9,240.13,109.83,239.3Z"/><path class="cls-17" d="M106.48,239.6c0-.31-1-.49-2.1-.39s-2,.44-2,.76,1,.49,2.1.39S106.51,239.92,106.48,239.6Z"/><path class="cls-18" d="M106.51,167c-3.94,19.51-11.2,58-8.62,58.56s11.38-37.85,15.33-57.36c2.55-12.61,6-28.31,6.59-38.18.35-5.39.18-9-.73-9.14s-2.47,3.07-4.26,8.22C111.57,138.46,109.06,154.44,106.51,167Z"/><path class="cls-19" d="M120.36,125.28c4.49-2.54,5.26-6.4,2.65-11.22-3.34-6.15,4.43-10.32,4.43-10.32-14.72,1.46-15.77,17-11.24,20.89A7.18,7.18,0,0,0,120.36,125.28Z"/><path class="cls-7" d="M119.51,123.87a7.15,7.15,0,0,0,1.57-2.63,3.79,3.79,0,0,0-.15-2.92c-.24-.41-.55-.84-.8-1.33a7.44,7.44,0,0,1-.53-1.5,9.82,9.82,0,0,1-.21-3.15,9.31,9.31,0,0,1,1.6-4.43c.16-.22.29-.45.46-.65l.54-.58a10.59,10.59,0,0,1,1.19-1c.43-.3.88-.57,1.33-.84s.95-.43,1.44-.62l1.49-.45a11.67,11.67,0,0,0-5.21,3.17,9.5,9.5,0,0,0-1.67,2.53,9.65,9.65,0,0,0-.75,2.94,9.89,9.89,0,0,0,.16,3,7.78,7.78,0,0,0,.49,1.43c.22.44.5.86.76,1.35a4,4,0,0,1,0,3.13A7.11,7.11,0,0,1,119.51,123.87Z"/><path class="cls-7" d="M117.3,123.05a6,6,0,0,1-1.62-3.45,4.47,4.47,0,0,1,.33-1.93,9.26,9.26,0,0,0,.36-1.83,29.23,29.23,0,0,1,.59-3.79,7.58,7.58,0,0,1,.76-1.78,5,5,0,0,1,1.37-1.35,5.49,5.49,0,0,0-1.81,3.21c-.26,1.23-.35,2.49-.49,3.76a10.39,10.39,0,0,1-.41,1.9,4.35,4.35,0,0,0-.37,1.79A6.51,6.51,0,0,0,117.3,123.05Z"/><path class="cls-5" d="M113.81,130.34a5.69,5.69,0,0,0,6,1.22l1.41-7a5.69,5.69,0,0,1-6-1.23Z"/><path class="cls-7" d="M120.92,126.07a4.84,4.84,0,0,1-3.22.57,4.91,4.91,0,0,1-2.83-1.63,8,8,0,0,0,2.91,1.21A7.78,7.78,0,0,0,120.92,126.07Z"/><path class="cls-7" d="M114.18,128.94a7.76,7.76,0,0,0,2.9,1.22,8,8,0,0,0,3.15-.15,4.77,4.77,0,0,1-6-1.07Z"/><path class="cls-4" d="M106.11,218.5h0a7.51,7.51,0,0,1-3.29-10.08L121,172.7l6.68,3.39Z"/><path class="cls-7" d="M125.57,177c-1.66,3.43-3.33,6.86-5,10.26l-5.13,10.21-5.22,10.17q-2.62,5.07-5.32,10.11,2.49-5.15,5-10.26L115,197.24l5.22-10.16Q122.88,182,125.57,177Z"/><path class="cls-20" d="M147.16,145.93a11.67,11.67,0,0,0-15.63,5c-.25.5-12.43,23.66-12.43,23.66a4.05,4.05,0,0,0,1.78,5.53,4.12,4.12,0,0,0,5.55-1.85l7.17-14a15.15,15.15,0,0,0,2.89,1.95,11.78,11.78,0,0,0,15.74-4.92A11.35,11.35,0,0,0,147.16,145.93Zm-8,15.61a6.06,6.06,0,0,1-2.73-8.17,6.17,6.17,0,0,1,8.27-2.64,6.06,6.06,0,0,1,2.73,8.17A6.19,6.19,0,0,1,139.16,161.54Z"/><path class="cls-4" d="M121,223.45h0a7.52,7.52,0,0,0,7.24-7.74L126.8,174l-7.49.26Z"/><path class="cls-7" d="M120.82,175.91q.32,5.93.56,11.83l.45,11.84.34,11.83q.17,5.93.23,11.84-.32-5.91-.55-11.83l-.45-11.83-.35-11.84Q120.9,181.84,120.82,175.91Z"/><path class="cls-5" d="M103.27,150.45a11.53,11.53,0,0,0,11.93,11.06,14,14,0,0,0,3.36-.56l.52,15.68a4.07,4.07,0,1,0,8.13-.27s-1.12-26.11-1.14-26.67a11.41,11.41,0,1,0-22.8.76Zm5.29-.17a6.06,6.06,0,1,1,6.27,5.85A6.07,6.07,0,0,1,108.56,150.28Z"/><path class="cls-4" d="M120.22,176.56a2.61,2.61,0,1,0,2.52-2.69A2.6,2.6,0,0,0,120.22,176.56Z"/><path class="cls-7" d="M122.16,178.94a14,14,0,0,1-.17-4.89,12.62,12.62,0,0,1,.3,2.44A14.43,14.43,0,0,1,122.16,178.94Z"/><path class="cls-7" d="M123.71,174a14.35,14.35,0,0,1,.16,4.89,13.71,13.71,0,0,1-.16-4.89Z"/></g><path class="cls-21" d="M55.22,275.35c.55,2,1,3.52,1.06,3.91,2.26,1.46,5.41-.13,5.41-.13l-.55-5.39C59.21,274.34,57.23,274.89,55.22,275.35Z"/><path class="cls-5" d="M56.28,279.15l0,6.77s11.33.47,13.43-1c-.25-4.65-7.57-2.56-8.1-6.19C61.63,278.77,58.24,279.87,56.28,279.15Z"/><path class="cls-13" d="M56.3,284.83v1.09s11.33.47,13.43-1a3.44,3.44,0,0,0-.23-1.08C67.43,285.24,56.87,284.94,56.3,284.83Z"/><path class="cls-21" d="M27.87,278.66c1.2,2.21,4.88,1.34,4.88,1.34l2.17-4.54A21.06,21.06,0,0,1,29.67,273C28.69,276.07,28,278.36,27.87,278.66Z"/><path class="cls-5" d="M27.87,278.66l-2.81,6.15a32,32,0,0,0,5.51,2.35c2.68.79,3.89,2.1,6.39,1.69,1.72-4.33-5.25-5.33-4.22-8.85C32.74,280,29.35,280.13,27.87,278.66Z"/><path class="cls-13" d="M25.51,283.82l-.45,1s9.4,4.45,11.9,4a3.59,3.59,0,0,0,.24-1.09C34.76,288.14,26,284.16,25.51,283.82Z"/><path class="cls-8" d="M39.6,232s-5.05,13.74,9.57,13.22c10.68-.37,8.15-14.94,8.15-14.94S50.69,234.44,39.6,232Z"/><path class="cls-8" d="M38.78,236.1c-1,3.64-4.23,24.13-4.23,24.13S28.23,274,27.87,276.81a10.27,10.27,0,0,0,5.85,2l9.37-15.74L50,244.2Z"/><path class="cls-8" d="M57.32,230.25l-9.64,14.53,5.12,16.47s1.93,14.25,2.64,16.87c2.81.18,4.83.42,6.58-.93L60.59,260.4Z"/><path class="cls-7" d="M48.17,248.83c.31-1,.66-1.92,1-2.86s.79-1.87,1.22-2.79h0a.18.18,0,0,1,.17-.11c.49,0,1,.05,1.47.07s1,.06,1.47.12c-.49.05-1,.1-1.47.12s-1,.06-1.47.06l.17-.11c-.38.94-.78,1.87-1.21,2.79S48.68,248,48.17,248.83Z"/><path class="cls-7" d="M62,275.74a8.69,8.69,0,0,1-3.54,1,8.26,8.26,0,0,1-1.86-.08,5.75,5.75,0,0,1-1.77-.58,14.09,14.09,0,0,0,1.81.26,10.71,10.71,0,0,0,1.79,0A20,20,0,0,0,62,275.74Z"/><path class="cls-7" d="M34.77,276.81a11.85,11.85,0,0,1-3.33-.65,9.6,9.6,0,0,1-1.56-.72,4.13,4.13,0,0,1-1.29-1.13,7.21,7.21,0,0,0,1.44.84,13.85,13.85,0,0,0,1.55.61C32.62,276.15,33.7,276.43,34.77,276.81Z"/><path class="cls-7" d="M35.29,284.29c-.58.39-1.18.69-1.74,1.06a8.74,8.74,0,0,0-1.6,1.21A3.15,3.15,0,0,1,33.33,285,4.76,4.76,0,0,1,35.29,284.29Z"/><path class="cls-7" d="M32.7,281.21a4.65,4.65,0,0,1-3,.51,4.23,4.23,0,0,1-1.44-.53,3.78,3.78,0,0,1-1.12-1,7.71,7.71,0,0,0,1.27.73,5,5,0,0,0,1.36.4A8.29,8.29,0,0,0,32.7,281.21Z"/><path class="cls-7" d="M62.41,280.17a4.32,4.32,0,0,1-1.4.8,6.91,6.91,0,0,1-1.57.37,7.32,7.32,0,0,1-1.62,0,6.29,6.29,0,0,1-1.54-.43,15.53,15.53,0,0,0,3.12.05,9.86,9.86,0,0,0,1.52-.26A9.27,9.27,0,0,0,62.41,280.17Z"/><path class="cls-7" d="M65.87,281.51A5,5,0,0,0,64.56,283a2.86,2.86,0,0,0-.36.88,7.26,7.26,0,0,0-.18,1,2.33,2.33,0,0,1-.14-1,2.52,2.52,0,0,1,2-2.28Z"/><rect class="cls-5" x="45.34" y="300.06" width="305.3" height="1.86" transform="translate(395.98 601.99) rotate(180)"/><polygon class="cls-22" points="106.84 233.99 289.14 233.99 350.64 300.06 45.34 300.06 106.84 233.99"/><polygon class="cls-4" points="50.6 289.13 108.46 226.97 287.52 226.97 345.38 289.13 345.38 298.1 50.6 298.1 50.6 289.13"/><polygon class="cls-23" points="345.38 289.13 287.52 226.97 108.46 226.97 50.6 289.13 345.38 289.13"/><path class="cls-4" d="M198,226.83c0-8.63,23.95-7.29,44.94-2.84,29.11,6.17,37.29-2.63,37.29-2.63l50.35,55.11s-15.79,21-63.8,6.07c-32.9-10.21-68.78-13.89-68.78,6.58Z"/><path class="cls-4" d="M198,289.12s-85.31-18.54-138.26-6.5l54.58-58.44c30.34-4.56,83.68,2.34,83.68,2.34Z"/><polygon class="cls-7" points="197.99 289.13 197.89 281.3 197.85 273.47 197.78 257.82 197.85 242.17 197.89 234.34 197.99 226.52 198.09 234.34 198.13 242.17 198.2 257.82 198.13 273.47 198.09 281.3 197.99 289.13"/><path class="cls-5" d="M211.64,298.16c0-4.9-6.16-9-13.76-9s-13.76,4.14-13.76,9Z"/><polygon class="cls-7" points="210.89 295.37 221.01 295.26 231.13 295.22 251.36 295.15 271.59 295.22 281.7 295.26 291.82 295.37 281.7 295.47 271.59 295.51 251.36 295.58 231.13 295.5 221.01 295.47 210.89 295.37"/><polygon class="cls-7" points="309.55 293.12 300.72 293.23 291.88 293.26 274.21 293.34 256.55 293.26 247.72 293.23 238.88 293.12 247.72 293.02 256.55 292.98 274.21 292.91 291.88 292.98 300.72 293.02 309.55 293.12"/><polygon class="cls-7" points="265.74 291.23 258.83 291.33 251.92 291.37 238.11 291.44 224.3 291.37 217.39 291.33 210.49 291.23 217.39 291.12 224.3 291.08 238.11 291.01 251.92 291.08 258.83 291.12 265.74 291.23"/><polygon class="cls-7" points="184.12 296.23 171.34 296.33 158.56 296.37 133 296.44 107.43 296.37 94.65 296.34 81.87 296.23 94.65 296.13 107.43 296.09 133 296.02 158.56 296.09 171.34 296.13 184.12 296.23"/><polygon class="cls-7" points="50.5 292.99 63.63 292.88 76.75 292.85 103.01 292.77 129.26 292.85 142.39 292.88 155.52 292.99 142.39 293.09 129.26 293.13 103.01 293.2 76.75 293.13 63.63 293.09 50.5 292.99"/><path class="cls-7" d="M185.13,291.22q-6.34.12-12.71.17l-12.71.05L147,291.39q-6.36,0-12.71-.17,6.36-.11,12.71-.16l12.71-.05,12.71.05Q178.78,291.1,185.13,291.22Z"/><path class="cls-7" d="M211.64,298.16a8.57,8.57,0,0,1,0,3.77,7.61,7.61,0,0,1-.21-1.89A8.09,8.09,0,0,1,211.64,298.16Z"/><path class="cls-7" d="M184.12,298.16a8.19,8.19,0,0,1,0,3.77,8.57,8.57,0,0,1,0-3.77Z"/><path class="cls-7" d="M197.88,289.12c-5.82-.66-11.65-1.22-17.49-1.75s-11.67-1.05-17.52-1.5q-17.52-1.38-35.09-2c-2.93-.08-5.85-.25-8.78-.29l-8.79-.17c-2.93,0-5.86,0-8.79,0-1.46,0-2.93,0-4.39,0l-4.39.14c-5.86.11-11.7.53-17.54,1l-8.73,1-8.65,1.55-.13,0,.1-.09c.81-.74,1.61-1.5,2.37-2.3.37-.41.75-.81,1.09-1.24a5.67,5.67,0,0,0,.89-1.39,5.65,5.65,0,0,1-.87,1.4c-.35.43-.71.84-1.09,1.25-.75.81-1.54,1.58-2.34,2.34l0-.07,8.64-1.64,8.74-1.06c5.84-.49,11.69-.94,17.55-1.08,11.72-.39,23.45-.29,35.16.19s23.42,1.18,35.11,2.15S186.25,287.68,197.88,289.12Z"/><path class="cls-7" d="M198,289.12a24.31,24.31,0,0,1,6.5-5.48,34.84,34.84,0,0,1,7.8-3.45,49,49,0,0,1,16.94-1.85,65.63,65.63,0,0,1,8.5,1c2.81.46,5.59,1.14,8.34,1.86,5.5,1.46,11,2.77,16.62,3.89a178.58,178.58,0,0,0,33.85,3.9,92.78,92.78,0,0,0,17-1.35,50.75,50.75,0,0,0,16.06-5.51v0l-2.51-2.41,2.54,2.37,0,0h0a50,50,0,0,1-16.05,5.69,93.28,93.28,0,0,1-17,1.43,176.78,176.78,0,0,1-33.93-3.8q-8.37-1.71-16.63-4c-2.75-.72-5.5-1.41-8.31-1.88a66.66,66.66,0,0,0-8.46-1,49.46,49.46,0,0,0-16.86,1.77,35.22,35.22,0,0,0-7.81,3.34A24.36,24.36,0,0,0,198,289.12Z"/><path class="cls-21" d="M298.11,166.36l-.67-3.77s1.48-3.36-1.5-4.55-1.38,8.53-1.38,8.53Z"/><path class="cls-3" d="M287.41,176.72l6.48,2.38-1.12-14.53h6s5.95,21.4,1.64,24.9-16.88-3.68-16.88-3.68Z"/><path class="cls-8" d="M211.27,240.61l7.82,7.5L300,155.31a10.23,10.23,0,0,0-2.94-5,10.36,10.36,0,0,0-4.88-2.54Q251.72,194.22,211.27,240.61Z"/><polygon class="cls-7" points="299.52 153.93 289.52 165.57 279.47 177.18 259.37 200.38 239.16 223.49 229.05 235.05 218.9 246.56 228.9 234.91 238.95 223.31 259.05 200.1 279.26 176.99 289.36 165.44 299.52 153.93"/><polygon class="cls-7" points="293.44 148.18 283.44 159.82 273.4 171.41 253.3 194.61 233.1 217.71 223 229.25 212.84 240.76 222.84 229.12 232.89 217.52 252.98 194.33 273.19 171.23 283.29 159.68 293.44 148.18"/><polygon class="cls-7" points="298.01 151.79 287.98 163.48 277.89 175.14 257.71 198.44 237.42 221.65 227.28 233.26 217.08 244.82 227.12 233.12 237.21 221.47 257.39 198.16 277.68 174.95 287.82 163.35 298.01 151.79"/><polygon class="cls-7" points="295.7 149.29 285.6 160.97 275.45 172.59 255.14 195.84 234.72 219 224.52 230.58 214.26 242.11 224.36 230.44 234.51 218.81 254.82 195.56 275.24 172.41 285.45 160.83 295.7 149.29"/><path class="cls-3" d="M211.18,240.71l0-.06a1.36,1.36,0,1,1,2,1.89l0,.05h0l.05-.06a1.36,1.36,0,1,1,1.95,1.89l0,0h0l.05-.05a1.36,1.36,0,1,1,1.95,1.89l0,0h0l.05-.05a1.39,1.39,0,0,1,1.94-.07,1.35,1.35,0,0,1,0,1.91c-.32.34-11.1,3.73-11.1,3.73s2.91-10.87,3.22-11.19l0,0Z"/><path class="cls-8" d="M212,250.59l-4,1.26s.54-2,1.19-4.31A5.44,5.44,0,0,1,212,250.59Z"/><path class="cls-21" d="M278.52,178.34h0c2.06,0,3.74-.45,3.74-2.38v-6.09a3.63,3.63,0,0,0-3.74-3.51h0a3.63,3.63,0,0,0-3.73,3.51V176C274.79,177.89,276.47,178.34,278.52,178.34Z"/><path class="cls-21" d="M268.54,168.21c1.22,4.93,1.89,9.28,6.12,8.19s9.9-6.78,8.69-11.71a8.89,8.89,0,0,0-10.63-6.38C268.49,159.39,267.33,163.28,268.54,168.21Z"/><path class="cls-11" d="M283.79,172.23c-1.74,2.81-5.85,4.56-8.7,1.09-3.33-3.67-.9-4.79-2.7-5.49s-.19,4.77-1.25,5.07-1.91-5.58-1.91-5.58a5.2,5.2,0,0,1-2.41-3c-1.48-4.81,10.44-9.61,14.59-5.07C287.13,161.88,283.79,172.23,283.79,172.23Z"/><path class="cls-21" d="M290.17,257.08c-1.66,1.37-4.23.23-4.23.23l-.49-3.36,4.61,0A27.94,27.94,0,0,0,290.17,257.08Z"/><path class="cls-9" d="M290.17,257.08a8.86,8.86,0,0,1,1.2,4.48c-.15,2.25-5,1.1-6.15.54s-4.08-.65-4.56-2,1.13-2.41,3.23-2.19,2-1.16,2-1.16A5.86,5.86,0,0,0,290.17,257.08Z"/><path class="cls-21" d="M274.76,254.05a29.46,29.46,0,0,0-.15,3c-1.78,1.37-4.25.23-4.25.23l-.19-3.25Z"/><path class="cls-8" d="M287.24,207.36s5.48,12-10.41,11.38c-13.16-.5-8.86-12.86-8.86-12.86S275.18,209.49,287.24,207.36Z"/><path class="cls-8" d="M288.11,210.63c.79,5.88,3.95,37.67,4,44.18-1,.57-7.84.94-9.1.75l-6.22-39.39Z"/><path class="cls-8" d="M267.34,211.15l12.25,5.4s-2,32.47-2.76,38.64c-.87.62-7.24.45-8.08-.38Z"/><path class="cls-9" d="M274.61,257.08a8.29,8.29,0,0,1,.81,4.48c-.34,2.25-5.13,1.1-6.19.54s-4-.65-4.4-2,1.35-2.41,3.43-2.19,2.07-1.16,2.07-1.16A5.67,5.67,0,0,0,274.61,257.08Z"/><path class="cls-3" d="M277.9,175.92c5.93,0,9.88-.15,11.58,2.42.77,1.17.92,2.84.07,7.78,0,0-1.13,6.59-1.66,11.87a46,46,0,0,0,0,10.06s-13.37,2.76-20.31-.9a72.83,72.83,0,0,0,.36-18.74c-.53-4.9-1.45-8.81,1-11.07C270.59,175.87,273,175.89,277.9,175.92Z"/><path class="cls-13" d="M273.55,182s-.76-5.13-4.58-4.67a3.16,3.16,0,0,1,1.9-1.15s4.38.93,4.22,5.3"/><path class="cls-13" d="M275.23,202.72s-4.09,4.24-7.49,1.9l.07-1.15s4.65.49,5.95-2.11"/><path class="cls-13" d="M286.61,181.25s-.23-5.67-4.05-5.21c.78-.59,2.8-.36,2.8-.36s2.95.68,2.79,5.06"/><rect class="cls-13" x="271.13" y="179.85" width="16.91" height="24.04" rx="3.9" transform="translate(559.17 383.73) rotate(180)"/><rect class="cls-13" x="274.59" y="179.85" width="16.91" height="24.04" rx="3.9" transform="translate(566.1 383.73) rotate(180)"/><path class="cls-7" d="M278.5,179.85a3.93,3.93,0,0,0-3.7,3.15,10.14,10.14,0,0,0,0,1.75l.05,7.12-.05,7.12a9.11,9.11,0,0,0,.05,1.74,3.69,3.69,0,0,0,.69,1.57,3.85,3.85,0,0,0,3,1.58,4,4,0,0,1-3.17-1.45,4.17,4.17,0,0,1-.79-1.64,10.06,10.06,0,0,1-.11-1.8l-.05-7.12.05-7.12a10,10,0,0,1,.11-1.8,4.1,4.1,0,0,1,.79-1.64A4,4,0,0,1,278.5,179.85Z"/><path class="cls-7" d="M291.51,187.29a9,9,0,0,1-3.29,4.37,8.88,8.88,0,0,1-5.28,1.64,9,9,0,0,1-8.35-6.33,9.83,9.83,0,0,0,3.34,4.22,8.91,8.91,0,0,0,5,1.68,8.7,8.7,0,0,0,5.08-1.48A9.65,9.65,0,0,0,291.51,187.29Z"/><polygon class="cls-4" points="282.79 194.59 284.77 194.62 284.77 191.6 282.79 191.57 282.79 194.59"/><path class="cls-21" d="M250.77,201.89s-5.83,3.93-6.48,2.7c-.15-.33,1.3-.81,1.3-.81s-1.66.7-1.87.16,2-.95,2-.95-2.2.74-2.33.21,2.46-1.37,2.46-1.37-2,1.08-2.15.56,2.59-1.64,2.59-1.64-1.18.51-1.33.24,1.82-2.92,6-.75"/><path class="cls-3" d="M269.49,177.5c-2.52-1.87-9.31,17-9.31,17L248.79,198a25,25,0,0,0,.84,5.38c.68-.46,13.74.36,16.22-2s5.28-10.86,5.28-14.23S271.94,179.32,269.49,177.5Z"/><path class="cls-21" d="M296.12,161.41s-.63-3-1.85-2.62.92,3.47.92,3.47"/><ellipse class="cls-9" cx="282.91" cy="168.27" rx="2.53" ry="2.68"/><path class="cls-11" d="M282.11,167.33c2.2-4.72,8,.63,7.43,4.68s-.54,6,.79,6.46C285.53,180.37,279.32,173.28,282.11,167.33Z"/><path class="cls-7" d="M268.09,197.87c.42-1.34,1-2.63,1.47-3.93l.79-1.94a17.12,17.12,0,0,0,.71-2,8.23,8.23,0,0,1-.4,2.08c-.2.67-.46,1.33-.71,2A27.6,27.6,0,0,1,268.09,197.87Z"/><path class="cls-7" d="M293.44,178.93a4.84,4.84,0,0,1,2.68.92,4.75,4.75,0,0,1-1.41-.26A4.4,4.4,0,0,1,293.44,178.93Z"/><path class="cls-7" d="M299.06,165.59a22.43,22.43,0,0,1-6.19.27,22.43,22.43,0,0,1,6.19-.27Z"/><path class="cls-7" d="M250.18,197.87a17.24,17.24,0,0,1,.6,2.63,16.12,16.12,0,0,1,.18,2.7,15.36,15.36,0,0,1-.6-2.63A15.19,15.19,0,0,1,250.18,197.87Z"/><path class="cls-7" d="M287.88,207.21a54,54,0,0,1-10.16.94,34.71,34.71,0,0,1-5.1-.39,15.2,15.2,0,0,1-4.88-1.5,18.22,18.22,0,0,0,4.92,1.18,38.92,38.92,0,0,0,5.06.28c1.69,0,3.39,0,5.08-.13S286.19,207.38,287.88,207.21Z"/><path class="cls-7" d="M278.73,229.32c-.14-2.79-.11-5.58,0-8.36v-.18l.18,0c1.86-.14,3.73-.24,5.6-.27q-2.78.42-5.57.67l.18-.2C279.07,223.75,279,226.54,278.73,229.32Z"/><path class="cls-7" d="M277.17,251.81a12.33,12.33,0,0,1-4.33.87,9.3,9.3,0,0,1-2.22-.27,5.41,5.41,0,0,1-2-1,9.12,9.12,0,0,0,4.2.82,17.39,17.39,0,0,0,2.16-.13C275.72,252,276.44,251.94,277.17,251.81Z"/><path class="cls-7" d="M292,250.73a19.07,19.07,0,0,1-4.78,1.09,12.64,12.64,0,0,1-2.46,0,5.4,5.4,0,0,1-2.36-.7,7.74,7.74,0,0,0,2.38.38,17.53,17.53,0,0,0,2.4-.11C288.74,251.27,290.33,251,292,250.73Z"/><path class="cls-7" d="M267.3,258.05a5.7,5.7,0,0,1-.33,1.15,11.62,11.62,0,0,1-.52,1.07,2,2,0,0,1,.12-1.23A2.44,2.44,0,0,1,267.3,258.05Z"/><path class="cls-7" d="M275.42,261.56a24.87,24.87,0,0,1-5.52-.18,17,17,0,0,1-2.71-.65,4.23,4.23,0,0,1-2.26-1.57,4.94,4.94,0,0,0,2.36,1.26A20.37,20.37,0,0,0,270,261C271.76,261.25,273.59,261.38,275.42,261.56Z"/><path class="cls-7" d="M275.38,259.53a3.32,3.32,0,0,0-1.53.61,3.38,3.38,0,0,0-1,1.34,1.84,1.84,0,0,1,2.48-2Z"/><path class="cls-7" d="M283.1,258.07a5.8,5.8,0,0,1-.33,1.16c-.17.35-.3.7-.52,1.07a2,2,0,0,1,.12-1.23A2.47,2.47,0,0,1,283.1,258.07Z"/><path class="cls-7" d="M291.22,261.59a24.87,24.87,0,0,1-5.52-.18,16.71,16.71,0,0,1-2.71-.65,4.25,4.25,0,0,1-2.26-1.57,5,5,0,0,0,2.36,1.26,23.81,23.81,0,0,0,2.67.54C287.56,261.27,289.39,261.41,291.22,261.59Z"/><path class="cls-7" d="M291.18,259.55a3.44,3.44,0,0,0-1.53.62,3.35,3.35,0,0,0-.95,1.33,1.94,1.94,0,0,1,.69-1.67A1.91,1.91,0,0,1,291.18,259.55Z"/><path class="cls-7" d="M55.18,195.11c3-.25,1.78-2.47,1.78-2.47,1.45-1.24.39-1.53.24-2.24.42-1.79-.6-2.15-.6-2.15a1.67,1.67,0,0,0-1.27-2.15c-.14-2.15-2.65-1.38-2.65-1.38-1.29-2.56-3-1-3-1-.5-1.29-2.22-.07-2.22-.07-.64-1.07-3.23-.15-3.08.61-.64-.61-2.52.58-2.44,1.76-2.57-.58-2,2.5-2,2.5a1.67,1.67,0,0,0-1.09,2.65c-1.18.43,0,2.3,0,2.3-.61,1.21.9,2.93.9,2.93-1.22,1.72,1,2.22,1,2.22-.36,1.15,1.36,1.29,1.36,1.29.14,1.65,1.5,1.79,3.15,1.29S55.18,195.11,55.18,195.11Z"/><rect class="cls-5" x="30.12" y="201.88" width="21.58" height="32.65" rx="5.38"/><rect class="cls-5" x="34.55" y="201.88" width="21.58" height="32.65" rx="5.38"/><path class="cls-9" d="M58,206.42l4.25,16,9.48,11.92-3.28,4s-11.67-5.7-14-11.38-5.36-17-5.36-17"/><path class="cls-9" d="M48.45,202.93c-5.48,0-9.14-.14-10.71,2.22-.71,1.08-.85,2.61-.06,7.14,0,0,1,6.05,1.53,10.89a41.67,41.67,0,0,1,0,9.24S51.57,235,58,231.59a66.23,66.23,0,0,1-.34-17.2c.5-4.5,1.35-8.08-.95-10.15C55.2,202.89,53,202.9,48.45,202.93Z"/><path class="cls-5" d="M39.13,202.09a10.55,10.55,0,0,1,6.29,9.16c.37,6.89-6.1,18.71-8.59,19.73h2.62a31.14,31.14,0,0,0,7.9-18.54c.17-3.5-2.26-8.25-5.24-10.56A13.56,13.56,0,0,0,39.13,202.09Z"/><path class="cls-5" d="M50.79,201.84a12.66,12.66,0,0,1,6.07,10c0,1,.42,3.71.49,8.33A28.32,28.32,0,0,0,58.79,213c.17-3.5-2.4-8.86-5.38-11.17A10.72,10.72,0,0,1,50.79,201.84Z"/><path class="cls-24" d="M55.35,192.84a10.55,10.55,0,0,0,.26,1.49c.44,1.82.84,5.3-1.87,6.79-3.79,2.08-8.4.37-10.5-3.67s-.89-7.2,3-9C53.93,184.79,55.16,190.75,55.35,192.84Z"/><path class="cls-24" d="M44.79,203.61V197.8a3.36,3.36,0,0,1,3.35-3.35h0a3.36,3.36,0,0,1,3.35,3.35v5.81C51.49,205.45,44.79,205.45,44.79,203.61Z"/><path class="cls-7" d="M44.79,199.6c-.64-1.33-3.7-4.5-1.34-5.16,1.13-.32,1.73,4.27,1.67,4.38A7.15,7.15,0,0,0,46.35,195c-.25-2.93,3.84-1.84,5.64-5.28a17.18,17.18,0,0,1,3.3,2.62c1.28-5.5-3.82-7.45-9.12-6.47-4.23.78-6.41,5.8-5,9.62a7.77,7.77,0,0,0,1.4,2.37C43.14,198.5,43.85,199.52,44.79,199.6Z"/><path class="cls-13" d="M118.29,266.55l4.95-9.64L11.18,206a9.69,9.69,0,0,0-4.95,9.64Z"/><polygon class="cls-7" points="9.93 206.77 23.96 213.02 37.96 219.33 65.96 231.96 93.9 244.72 107.86 251.1 121.81 257.54 107.78 251.29 93.78 244.98 65.78 232.35 37.84 219.59 23.87 213.21 9.93 206.77"/><polygon class="cls-7" points="6.41 214.35 20.4 220.59 34.36 226.89 62.28 239.48 90.15 252.21 104.08 258.57 117.98 265 103.99 258.76 90.03 252.47 62.11 239.87 34.25 227.14 20.32 220.78 6.41 214.35"/><polygon class="cls-7" points="8.46 208.89 22.53 215.16 36.57 221.48 64.65 234.14 92.67 246.93 106.68 253.32 120.66 259.78 106.59 253.51 92.55 247.19 64.47 234.53 36.45 221.74 22.44 215.35 8.46 208.89"/><polygon class="cls-7" points="6.41 212.25 20.51 218.53 34.59 224.88 62.73 237.56 90.81 250.38 104.86 256.79 118.87 263.26 104.77 256.98 90.7 250.64 62.55 237.95 34.47 225.13 20.43 218.72 6.41 212.25"/><path class="cls-3" d="M118.41,266.61l-.07,0a1.36,1.36,0,1,1,1.25-2.41l.06,0h0l-.07,0a1.38,1.38,0,0,1-.62-1.84,1.4,1.4,0,0,1,1.87-.57l.06,0h0l-.07,0a1.36,1.36,0,1,1,1.25-2.41l.06,0h0l-.07,0a1.38,1.38,0,0,1-.62-1.84,1.34,1.34,0,0,1,1.81-.6c.42.22,6.75,9.58,6.75,9.58s-11.24.31-11.64.11l0,0Z"/><path class="cls-13" d="M127.65,263l2.35,3.44-4.47.09A5.4,5.4,0,0,1,127.65,263Z"/><path class="cls-24" d="M35.29,227.82a2,2,0,1,0,2-1.89A1.94,1.94,0,0,0,35.29,227.82Z"/><path class="cls-24" d="M36,224.85a7.71,7.71,0,0,1,3.59,5.4c.16,1.86-1.16.22-1.16.22-.56,1.6-1.57,0-1.57,0-.55,1.54-1.28,0-1.28,0-1,1.22-2.09-.83-1.36-3.5"/><path class="cls-9" d="M41.67,214.24,34,218.13l4.11,7.49-4.46,2.69s-13-9.92-9-14.49,15.3-10.21,15.3-10.21"/><path class="cls-7" d="M50.66,195c.05.53-.18,1-.52,1s-.64-.37-.68-.9.18-1,.51-1S50.61,194.45,50.66,195Z"/><path class="cls-7" d="M54.65,194.62c.05.52-.12,1-.37,1s-.51-.39-.56-.92.12-1,.38-1S54.61,194.09,54.65,194.62Z"/><path class="cls-7" d="M52.32,196.3a.85.85,0,0,1,.45-.38.55.55,0,0,1,.67.28,1.3,1.3,0,0,1-.18,1.15c-.06-.19-.07-.37-.11-.53a1.24,1.24,0,0,0-.1-.44c0-.1-.07-.13-.22-.14A2.58,2.58,0,0,0,52.32,196.3Z"/><path class="cls-7" d="M51.44,198.5a.76.76,0,0,0,.42.21,1.19,1.19,0,0,0,.42,0c.3,0,.61-.15,1-.17a1.39,1.39,0,0,1-.93.59,1.09,1.09,0,0,1-.61-.11A.57.57,0,0,1,51.44,198.5Z"/><path class="cls-7" d="M49,193a.5.5,0,0,1,.36-.49.56.56,0,0,1,.58.17,1.7,1.7,0,0,1-.46.24Z"/><path class="cls-7" d="M53.42,192.07a.65.65,0,0,1,.58-.22.61.61,0,0,1,.5.38,1.59,1.59,0,0,1-.55,0A1.53,1.53,0,0,1,53.42,192.07Z"/><path class="cls-25" d="M50.58,198.31a1.07,1.07,0,1,1-2.08.19,1.06,1.06,0,1,1,2.08-.19Z"/><path class="cls-25" d="M55.47,197.87c.07.7-.13,1.29-.44,1.32s-.61-.52-.67-1.22.13-1.3.44-1.32S55.41,197.16,55.47,197.87Z"/><path class="cls-7" d="M38.36,216a11.71,11.71,0,0,1,2-1.24,12.69,12.69,0,0,1,2.17-.85,12.32,12.32,0,0,1-2,1.23A11.68,11.68,0,0,1,38.36,216Z"/><path class="cls-7" d="M32.76,216.43a4.51,4.51,0,0,1,1.51,2.28,4.51,4.51,0,0,1-1.51-2.28Z"/><path class="cls-7" d="M37,223.66a20.85,20.85,0,0,1-2.4,1.83A21.26,21.26,0,0,1,32,227a21.21,21.21,0,0,1,2.4-1.84A19.37,19.37,0,0,1,37,223.66Z"/><path class="cls-7" d="M51.7,202.93a4.53,4.53,0,0,1,.79,1,1.94,1.94,0,0,1,.22.64.77.77,0,0,1-.21.71,1.66,1.66,0,0,1-1.37.21,8.59,8.59,0,0,1-1.28-.35l.18,0a4.38,4.38,0,0,1-3.64.78,2.53,2.53,0,0,1-1.49-1.17,2.3,2.3,0,0,1-.11-1.83,2.35,2.35,0,0,0,.31,1.71,2.22,2.22,0,0,0,1.39.94,4.29,4.29,0,0,0,3.31-.75h0a.21.21,0,0,1,.17,0,7.65,7.65,0,0,0,1.21.37,1.51,1.51,0,0,0,1.12-.07c.27-.2.17-.69,0-1.06A5.56,5.56,0,0,0,51.7,202.93Z"/><path class="cls-7" d="M37.76,202a5,5,0,0,0-2.39,1.85,8.09,8.09,0,0,0-1.1,2.87,4.87,4.87,0,0,1,.75-3.11,3.92,3.92,0,0,1,1.2-1.13A3.74,3.74,0,0,1,37.76,202Z"/><path class="cls-7" d="M33.6,228.31c0,.6,0,1.19.11,1.77a8.91,8.91,0,0,0,.33,1.71,5.25,5.25,0,0,0,.71,1.56A4.61,4.61,0,0,0,36,234.52a3.24,3.24,0,0,1-1.53-1,5,5,0,0,1-.86-1.64A7.2,7.2,0,0,1,33.6,228.31Z"/><path class="cls-7" d="M57.35,220.16a26.07,26.07,0,0,1,.39,3.39,24.41,24.41,0,0,1,0,3.42,26.07,26.07,0,0,1-.39-3.39A24.41,24.41,0,0,1,57.35,220.16Z"/><path class="cls-7" d="M62.2,222.38a4.49,4.49,0,0,1-1.14.83,4.54,4.54,0,0,1-1.33.45,4.51,4.51,0,0,1,1.13-.83A4.6,4.6,0,0,1,62.2,222.38Z"/><path class="cls-7" d="M51.49,201.84a4.65,4.65,0,0,1-2,.15,2.64,2.64,0,0,1-1.78-1,5.72,5.72,0,0,0,1.85.56C50.16,201.7,50.81,201.7,51.49,201.84Z"/><path class="cls-5" d="M49.07,188.27A9.32,9.32,0,0,0,48,188a1,1,0,0,0-.46,0,1.61,1.61,0,0,0-.47.24.74.74,0,0,1,.33-.54,1,1,0,0,1,.66-.13A1.43,1.43,0,0,1,49.07,188.27Z"/><path class="cls-5" d="M46.19,186.56a9.73,9.73,0,0,0-1.47.08,2.41,2.41,0,0,0-.66.2,3.2,3.2,0,0,0-.6.43,1.31,1.31,0,0,1,.42-.7,1.8,1.8,0,0,1,.76-.34A2.2,2.2,0,0,1,46.19,186.56Z"/><path class="cls-5" d="M51.89,186.4c-.36-.1-.62-.24-.91-.29a1.54,1.54,0,0,0-.43-.06,4.16,4.16,0,0,0-.49,0,.83.83,0,0,1,.44-.34,1.22,1.22,0,0,1,.57,0A1.16,1.16,0,0,1,51.89,186.4Z"/><path class="cls-5" d="M46.63,190.68c-.53,0-1-.18-1.49-.22a2.67,2.67,0,0,0-.69,0,1.27,1.27,0,0,0-.67.24.92.92,0,0,1,.59-.56,1.93,1.93,0,0,1,.82-.08A2.78,2.78,0,0,1,46.63,190.68Z"/><path class="cls-5" d="M42.1,190.23a1.28,1.28,0,0,0-.25.3,1.3,1.3,0,0,0-.14.29,6.11,6.11,0,0,1-.34.68,1,1,0,0,1-.13-.42,1.36,1.36,0,0,1,.08-.44.89.89,0,0,1,.32-.35A.51.51,0,0,1,42.1,190.23Z"/><path class="cls-14" d="M207.48,223.43s-.93,3.53,0,4.4,1.75.47,2,1.89c.18,1,1.44,1.07,1.19-.13.26,1.32,1.12.68,1-.18.44,1,1.34.53,1-.19,1,1.42,1.18-1-.18-1.72a3.44,3.44,0,0,1-2-3.87C210.79,221.53,207.48,223.43,207.48,223.43Z"/><path class="cls-12" d="M206,212.77l0,11.53,5.28.4s3.45-8.73,1.8-14.74"/><path class="cls-7" d="M212,222.64a18.81,18.81,0,0,1-3,.1,20,20,0,0,1-3-.32,21.4,21.4,0,0,1,6,.22Z"/><path class="cls-14" d="M207.08,226.64c0,2,1.09,3,1.51,2.85s-.12-1.24,0-1.59"/><path class="cls-14" d="M173.13,219.18s.49,3.62-.58,4.37-1.79.25-2.22,1.63c-.3.93-1.56.88-1.17-.28-.42,1.28-1.2.54-1-.3-.56,1-1.39.36-.93-.31-1.11,1.29-1-1.1.39-1.68a3.44,3.44,0,0,0,2.5-3.59C170.08,216.9,173.13,219.18,173.13,219.18Z"/><path class="cls-12" d="M176.26,208.82l-1.74,11.41-5.29-.25s-2-9.06.39-14.82"/><path class="cls-7" d="M174.84,218.12a19.78,19.78,0,0,1-3,.21,18.54,18.54,0,0,1-3-.21,21.11,21.11,0,0,1,5.94,0Z"/><path class="cls-14" d="M173.12,222.42c-.22,2-1.44,2.84-1.85,2.64s.28-1.22.24-1.57"/><path class="cls-21" d="M263.73,238.77c3.07,2.89,7.3,8.08,8.15,9.8,2.09,4.2-8,15.18-8,15.18l-4.62-.7,6.14-11.79s-4.09-4.36-7.35-7.22A24.83,24.83,0,0,0,263.73,238.77Z"/><path class="cls-26" d="M259.52,244c-4.55-4-11.45-8.41-8.07-11,1.8-1.37,7.26-.43,13.71,5.7A25,25,0,0,1,259.52,244Z"/><path class="cls-21" d="M272.64,312.3c-1-5.73-.06-8.4-1.16-12.59a23.85,23.85,0,0,0-1.5-4.12c0-2.08-.14-4.31-.39-6.66a70.78,70.78,0,0,0-2.46-12.34l-7.37.14,8.7,35.59S271.12,313.93,272.64,312.3Z"/><path class="cls-11" d="M272.58,312a8.34,8.34,0,0,1,.82,4.51c-.34,2.26-5.16,1.1-6.22.54s-4-.65-4.41-2,1.35-2.43,3.44-2.21,2.08-1.16,2.08-1.16A5.7,5.7,0,0,0,272.58,312Z"/><path class="cls-21" d="M235.28,227.94c.91,5.27,3.44,8.1,7.34,7.08s6.69-5.71,5.47-10.35-5.37-7.59-9.26-6.56S232.44,223.15,235.28,227.94Z"/><path class="cls-21" d="M247.22,236.4h0c1.84-.63,3.2-1.57,2.57-3.41l-2-5.8a3.56,3.56,0,0,0-4.49-2.21h0a3.55,3.55,0,0,0-2.2,4.49l2,5.8C243.73,237.11,245.39,237,247.22,236.4Z"/><path class="cls-21" d="M253.16,312c0-5.81,1.41-7.38,1.06-11.69a23.54,23.54,0,0,0-.74-4.29c.34-2.06.62-4.27.79-6.63a70,70,0,0,0-.24-12.55l-7.29-1,2.16,36.41S251.37,313.34,253.16,312Z"/><path class="cls-13" d="M264.65,261.73s7.69,14-9.26,13.68c-13.22-.23-8.9-12.93-8.9-12.93S252.54,263.87,264.65,261.73Z"/><path class="cls-13" d="M266.14,267c1.32,5.8,3.26,12.68,3.94,19.21-2.4,1.94-6.22,2.5-9.71,2.45l-4.89-14.31Z"/><path class="cls-13" d="M245.86,267.79l10.53,5.94s.77,9.35,0,15.57c-2.88.61-8.16.52-10.57-.61Z"/><path class="cls-26" d="M245.08,233.85c9.4-3.45,13.59.68,14.49,5.64,0,0,1.3,7.14,2.61,12.33.65,2.56,3.23,7.85,3.53,11.48-5.89,1.58-12.84,5.78-20.7,4.41-1.8-8.37-3-14.74-5.09-18.94-2.2-4.5-4.42-7.94-2.84-10.85C238.11,236,240.52,235.52,245.08,233.85Z"/><path class="cls-11" d="M253.16,312a8.34,8.34,0,0,1,.82,4.51c-.34,2.26-5.16,1.1-6.22.54s-4-.65-4.41-2,1.34-2.43,3.44-2.21,2.07-1.16,2.07-1.16A5.72,5.72,0,0,0,253.16,312Z"/><path class="cls-18" d="M245.71,231.4c3.92-1.34,3.64-6,2.93-8.09.14-.79.11-7.25-7-6.25-3.86-.7-10,2.62-8.62,6.59.61,1.8,2.39,2.12,4.74.86,1.51,5,1.58,4.18,2.25,4s-1-2.54.75-2.86S241.88,232.7,245.71,231.4Z"/><path class="cls-26" d="M235.57,249.09c-.6-5.84-.41-12.8,3.92-12.61,2.31.1,3.61,6.25,4,12.18A27.34,27.34,0,0,1,235.57,249.09Z"/><path class="cls-21" d="M236.07,249.05a25.31,25.31,0,0,0,7.42-.41c.25,3.83.24,10.22-.29,11.92-.91,2.93-2.81,8.81-4.11,13.66a12.6,12.6,0,0,1-4-.74L237.38,259S236.47,253,236.07,249.05Z"/><path class="cls-21" d="M235.46,272.78l2.87-1.08a5,5,0,0,0,.76,2.52c1.65,1.45.92,2.18.51,2.45-.22.15-.3-.66-.64-1.06.46.66.66,1.33.27,1.55-.67.37-.4-.86-1.19-1.32.68,1.24.19,1.87-.18,1.8-.55-.11-.45-1.09-.79-1.63.13.8,0,1.85-.61,1.81s-.08-2.52-1.21-2.39c-.45.05.2,1.18-.2,1.31s-.75,0-1-.69C233.79,274.3,234.63,273.73,235.46,272.78Z"/><path class="cls-7" d="M241.85,233a2.34,2.34,0,0,1,.53.89,2.41,2.41,0,0,1,.12,1,2.44,2.44,0,0,1-.65-1.9Z"/><path class="cls-7" d="M244.09,229c0-.61.07-1.17.1-1.73a7.91,7.91,0,0,0,.06-.84,1.43,1.43,0,0,0-.16-.8,1.07,1.07,0,0,1,.49.77,3.91,3.91,0,0,1,0,.9A4.44,4.44,0,0,1,244.09,229Z"/><path class="cls-7" d="M245.18,223.52a3.52,3.52,0,0,1,1.12,1.33,3,3,0,0,1,.24.86,1.08,1.08,0,0,1-.26.85,1.49,1.49,0,0,0-.07-.79,3.59,3.59,0,0,0-.3-.74C245.7,224.53,245.4,224.06,245.18,223.52Z"/><path class="cls-7" d="M247.56,223.13a4.92,4.92,0,0,1,.65,2.08,3.54,3.54,0,0,1-.09,1.12,1.81,1.81,0,0,1-.56.95,3.1,3.1,0,0,0,.24-1,5.07,5.07,0,0,0,0-1C247.76,224.55,247.62,223.86,247.56,223.13Z"/><path class="cls-7" d="M241.85,222.87a5.69,5.69,0,0,1,.59,1.07c.06.19.15.36.22.55a5.11,5.11,0,0,0,.24.55,1.62,1.62,0,0,1-.85-.93A2.62,2.62,0,0,1,241.85,222.87Z"/><path class="cls-7" d="M242.9,221a2.49,2.49,0,0,1,1.11.81,2.09,2.09,0,0,1,.3.66.67.67,0,0,1-.22.69.82.82,0,0,0-.09-.59,2.7,2.7,0,0,0-.33-.5C243.43,221.69,243.14,221.38,242.9,221Z"/><path class="cls-7" d="M246.28,219.82a2.49,2.49,0,0,1,.37,1.09,3.75,3.75,0,0,1,0,.58.93.93,0,0,1-.23.56,4.48,4.48,0,0,0-.1-.55c0-.18-.05-.36-.08-.55A3.35,3.35,0,0,1,246.28,219.82Z"/><path class="cls-7" d="M239.9,221.38a9,9,0,0,0,.07,1.1,2.21,2.21,0,0,0,.11.51c0,.18.11.34.17.55a1.32,1.32,0,0,1-.7-1A1.43,1.43,0,0,1,239.9,221.38Z"/><path class="cls-7" d="M238.53,222.46c.09.31.11.53.2.75s.16.43.25.75a.94.94,0,0,1-.66-.62A.86.86,0,0,1,238.53,222.46Z"/><path class="cls-7" d="M257.85,235.48a39.71,39.71,0,0,1,1.44,3.9,37.18,37.18,0,0,1,1,4,37.23,37.23,0,0,1-1.43-3.9A39,39,0,0,1,257.85,235.48Z"/><path class="cls-7" d="M264.28,237.9a16,16,0,0,1-1.9,2.37c-.37.35-.73.71-1.13,1a4.56,4.56,0,0,1-1.3.8,11.81,11.81,0,0,0,1.08-1l1-1.09C262.79,239.27,263.48,238.54,264.28,237.9Z"/><path class="cls-7" d="M242.92,240.61c.41,1.21.76,2.45,1.06,3.69s.58,2.49.8,3.75l0,.13-.11,0c-.59.16-1.19.31-1.78.43.56-.25,1.12-.48,1.68-.68l-.08.15c-.35-1.23-.67-2.47-.93-3.72S243.08,241.88,242.92,240.61Z"/><path class="cls-7" d="M243.85,246.94a18.06,18.06,0,0,1-4.17,1,14.17,14.17,0,0,1-2.16.05,5.3,5.3,0,0,1-2.09-.5,8.24,8.24,0,0,0,2.1.17,16.48,16.48,0,0,0,2.1-.15C241,247.36,242.43,247.11,243.85,246.94Z"/><path class="cls-7" d="M265.46,261.73a70.11,70.11,0,0,1-10.07,3.69,43.25,43.25,0,0,1-5.26,1.14,15.08,15.08,0,0,1-5.36,0,17.79,17.79,0,0,0,5.3-.33,51.66,51.66,0,0,0,5.2-1.23c1.72-.46,3.42-1,5.12-1.55S263.78,262.33,265.46,261.73Z"/><path class="cls-7" d="M256.73,277.1a2.28,2.28,0,0,1-.08-.73c0-.25,0-.49,0-.73a14,14,0,0,1,.16-1.45l0-.12.13,0c.77-.18,1.55-.31,2.33-.45s1.56-.23,2.36-.29c-.76.26-1.52.46-2.29.65s-1.54.35-2.32.47l.15-.15q-.12.71-.27,1.41l-.14.71A2.94,2.94,0,0,0,256.73,277.1Z"/><path class="cls-7" d="M247.48,268c.06,1.62.11,3.23.13,4.85v4.84l-.08,4.84c0,1.62-.11,3.23-.2,4.85-.07-1.62-.11-3.23-.13-4.85v-4.84l.08-4.85C247.32,271.21,247.39,269.59,247.48,268Z"/><path class="cls-7" d="M256.58,287.36a37.86,37.86,0,0,1-5.42.36c-.91,0-1.81-.05-2.72-.16a6.64,6.64,0,0,1-2.62-.71,9.49,9.49,0,0,0,2.65.39c.9,0,1.79.06,2.69.05C253,287.33,254.76,287.29,256.58,287.36Z"/><path class="cls-7" d="M269.8,284a24.55,24.55,0,0,1-4.77,1.89,23.85,23.85,0,0,1-2.51.54,11.63,11.63,0,0,1-2.57.1,30.92,30.92,0,0,0,5-1C266.56,285,268.16,284.48,269.8,284Z"/><path class="cls-7" d="M254,316a7.23,7.23,0,0,1-2.7.85,7.06,7.06,0,0,1-2.85-.24,21.42,21.42,0,0,1-5.1-2.4,54.45,54.45,0,0,0,5.23,2,7.22,7.22,0,0,0,2.7.33A10.32,10.32,0,0,0,254,316Z"/><path class="cls-7" d="M246.33,312.79a7.1,7.1,0,0,0-1,.95,2.26,2.26,0,0,0-.35.52,4.74,4.74,0,0,0-.26.64,1.33,1.33,0,0,1-.05-.74,1.78,1.78,0,0,1,1.61-1.37Z"/><path class="cls-7" d="M273.42,316.14a7.48,7.48,0,0,1-2.7.85,6.88,6.88,0,0,1-2.85-.25,20.69,20.69,0,0,1-5.1-2.4,50.94,50.94,0,0,0,5.22,2,7.26,7.26,0,0,0,2.7.32A9.91,9.91,0,0,0,273.42,316.14Z"/><path class="cls-7" d="M265.72,312.93a7.74,7.74,0,0,0-1,.95,2.32,2.32,0,0,0-.35.53,6.27,6.27,0,0,0-.27.63,1.33,1.33,0,0,1,0-.74,1.71,1.71,0,0,1,.32-.68A1.87,1.87,0,0,1,265.72,312.93Z"/><path class="cls-21" d="M133,223.59l.68-3.77s-1.48-3.36,1.5-4.55,1.37,8.53,1.37,8.53Z"/><path class="cls-13" d="M143.7,234l-6.95,0,.51-12.19h-4.94s-6.62,15.46-2.32,19S147.56,243,147.56,243Z"/><polygon class="cls-9" points="219.84 297.84 212.01 305.34 131.12 212.54 138.94 205.04 219.84 297.84"/><polygon class="cls-7" points="132.66 212.39 142.68 223.75 152.65 235.15 172.59 257.95 192.43 280.85 202.34 292.3 212.21 303.79 202.19 292.43 192.21 281.03 172.27 258.23 152.44 235.33 142.52 223.88 132.66 212.39"/><polygon class="cls-7" points="138.52 206.38 148.56 217.77 158.56 229.19 178.55 252.05 198.43 274.99 208.37 286.47 218.26 297.99 208.21 286.61 198.22 275.18 178.23 252.32 158.35 229.38 148.41 217.9 138.52 206.38"/><polygon class="cls-7" points="134.86 211.05 144.83 222.36 154.76 233.71 174.6 256.41 194.34 279.21 204.21 290.61 214.02 302.05 204.05 290.74 194.13 279.39 174.28 256.69 154.54 233.89 144.68 222.49 134.86 211.05"/><polygon class="cls-7" points="137.68 208.34 147.66 219.65 157.58 231 177.43 253.7 197.16 276.5 207.03 287.9 216.85 299.34 206.87 288.03 196.95 276.68 177.11 253.98 157.37 231.19 147.5 219.79 137.68 208.34"/><path class="cls-3" d="M219.93,297.94l-.06-.06a1.35,1.35,0,1,0-1.94,1.89l0,.05h0l-.06-.06a1.35,1.35,0,1,0-1.94,1.89l0,0h0l0-.05a1.36,1.36,0,1,0-2,1.89l0,0h0l-.05-.05a1.39,1.39,0,0,0-1.94-.07,1.35,1.35,0,0,0-.06,1.91c.33.34,11.11,3.73,11.11,3.73s-2.92-10.87-3.22-11.19l0,0Z"/><path class="cls-9" d="M219.14,307.82l4,1.26s-.54-2-1.18-4.31A5.44,5.44,0,0,0,219.14,307.82Z"/><path class="cls-3" d="M139.08,205.18c.57.61-.71,2.77-2.87,4.84s-4.38,3.27-5,2.66.71-2.77,2.87-4.84S138.5,204.58,139.08,205.18Z"/><path class="cls-9" d="M136.65,207.51c.22.23-.27,1.05-1.09,1.84s-1.66,1.24-1.88,1,.27-1.05,1.09-1.84S136.43,207.28,136.65,207.51Z"/><path class="cls-21" d="M152.58,235.57h0c-2.05,0-3.73-.45-3.73-2.38V227.1a3.63,3.63,0,0,1,3.73-3.51h0a3.63,3.63,0,0,1,3.74,3.51v6.09C156.32,235.12,154.64,235.57,152.58,235.57Z"/><path class="cls-21" d="M162.56,225.44c-1.21,4.93-1.88,9.28-6.11,8.19s-9.91-6.78-8.69-11.71a8.87,8.87,0,0,1,10.62-6.38C162.61,216.62,163.78,220.51,162.56,225.44Z"/><path class="cls-21" d="M139.66,314.31c1.85,1.37,4.7.23,4.7.23l.54-3.36-5.12,0A26,26,0,0,1,139.66,314.31Z"/><path class="cls-5" d="M139.66,314.31a8.21,8.21,0,0,0-1.33,4.48c.16,2.25,5.6,1.1,6.83.54s4.53-.65,5.07-2-1.26-2.41-3.6-2.19-2.19-1.16-2.19-1.16A7.13,7.13,0,0,1,139.66,314.31Z"/><path class="cls-21" d="M156.79,311.28a29.21,29.21,0,0,1,.16,3c2,1.37,4.72.23,4.72.23l.21-3.25Z"/><path class="cls-18" d="M142.92,264.59s-6.09,12,11.56,11.38c14.62-.5,8-13.44,8-13.44S156.31,266.72,142.92,264.59Z"/><path class="cls-18" d="M141.94,267.86c-.87,5.88-3.54,38.7-3.63,45.2,1.12.58,7.06.19,8.45,0l7.72-39.66Z"/><path class="cls-18" d="M163.73,266.28l-12.54,7.58s3,33.09,3.87,39.27c1,.62,7.42.3,8.36-.53a219.25,219.25,0,0,0,1.35-27.7C164.68,278.28,164.3,272.06,163.73,266.28Z"/><path class="cls-5" d="M157,314.31a7.65,7.65,0,0,0-.91,4.48c.38,2.25,5.71,1.1,6.88.54s4.48-.65,4.89-2-1.49-2.41-3.81-2.19-2.3-1.16-2.3-1.16A6.91,6.91,0,0,1,157,314.31Z"/><path class="cls-13" d="M153.29,233.15c-6.58,0-11-.15-12.86,2.42-.86,1.17-1,2.84-.08,7.78,0,0,1.25,6.59,1.85,11.87a42.44,42.44,0,0,1,0,10.06s14.85,2.76,22.56-.9a65.82,65.82,0,0,1-.41-18.74c.6-4.9,1.62-8.81-1.14-11.07C161.41,233.1,158.71,233.12,153.29,233.15Z"/><path class="cls-8" d="M158.12,239.24s.85-5.13,5.09-4.67a3.61,3.61,0,0,0-2.11-1.15s-4.87.93-4.69,5.3"/><path class="cls-8" d="M156.26,260s4.54,4.24,8.32,1.9l-.08-1.15s-5.17.49-6.6-2.11"/><path class="cls-8" d="M143.62,238.48s.25-5.67,4.49-5.21c-.86-.59-3.1-.36-3.1-.36s-3.29.68-3.1,5.06"/><path class="cls-21" d="M180.34,259.12s5.82,3.93,6.47,2.7c.16-.33-1.3-.81-1.3-.81s1.67.7,1.88.16-2-.95-2-.95,2.21.74,2.33.21-2.45-1.37-2.45-1.37,2,1.08,2.15.56-2.6-1.64-2.6-1.64,1.18.51,1.33.24-1.81-2.92-6-.75"/><path class="cls-13" d="M161.62,234.73c2.51-1.87,9.52,17.46,9.52,17.46l11.18,4.15a19.1,19.1,0,0,1-.84,4.23c-.68-.46-13.75.36-16.22-2S160,247.73,160,244.36,159.17,236.55,161.62,234.73Z"/><path class="cls-21" d="M135,218.64s.64-3,1.86-2.62-.93,3.47-.93,3.47"/><ellipse class="cls-8" cx="149.55" cy="248.44" rx="12.57" ry="13.62"/><path class="cls-7" d="M144.13,257.86l3.72,0,1.86,0a4.8,4.8,0,0,0,1.81-.28,4.35,4.35,0,0,0,2.51-2.48,10.4,10.4,0,0,0,.26-3.63l.19.19c-4.92,0-9.85,0-14.77-.09l.1-.1c0,.75,0,1.5,0,2.24a4.25,4.25,0,0,0,.63,2.1A4.43,4.43,0,0,0,144.13,257.86Zm0,0a4.46,4.46,0,0,1-3.77-2.06,4.6,4.6,0,0,1-.7-2.13c0-.75,0-1.49,0-2.24v-.09h.1c4.92-.09,9.85-.15,14.77-.09h.19v.18l0,1.86a4.83,4.83,0,0,1-.37,1.87,4.51,4.51,0,0,1-2.71,2.51,4.84,4.84,0,0,1-1.85.23h-1.86Z"/><path class="cls-11" d="M142.6,227.33c-2.94-1.63.11-6.47,1.1-6.2.26-4.39,5.36-8.31,8.68-7.39,4.67-1.57,11.48.17,12.66,5.07.43,1.78-3.51,4.52-3.79,5.66.87,2.13,1.67,5.21-.64,5.66-.46,4.14-4.18,5.68-7.09,3.4-4.49,2.72-9.36.58-8.89-1.15C140.69,233,140.81,228.08,142.6,227.33Z"/><path class="cls-7" d="M164.58,315.12a3.26,3.26,0,0,1,1.26,1.57,2.45,2.45,0,0,1,.14,1,1.7,1.7,0,0,1-.45.93,2.72,2.72,0,0,0-.08-1.83A12,12,0,0,0,164.58,315.12Z"/><path class="cls-7" d="M159.71,320.08c-.22-.36-.44-.71-.67-1a5.6,5.6,0,0,0-.74-.93,2.86,2.86,0,0,0-2-1.05,1.94,1.94,0,0,1,1.28,0,2.94,2.94,0,0,1,1.07.74A4.45,4.45,0,0,1,159.71,320.08Z"/><path class="cls-7" d="M147.25,315.12a3.08,3.08,0,0,1,1,1.66,3,3,0,0,1,0,1,2,2,0,0,1-.4.89,4.94,4.94,0,0,0,.07-.92,3.69,3.69,0,0,0-.1-.87A11.28,11.28,0,0,0,147.25,315.12Z"/><path class="cls-7" d="M138.33,317.06a4.58,4.58,0,0,1,2.46.75,3.16,3.16,0,0,1,.91,1,2,2,0,0,1,.2,1.28,2.91,2.91,0,0,0-1.35-1.91,6.45,6.45,0,0,0-1.06-.6C139.11,317.38,138.73,317.22,138.33,317.06Z"/><path class="cls-7" d="M164.6,263.26a53,53,0,0,1-11.11,2,34.62,34.62,0,0,1-5.67,0,18.88,18.88,0,0,1-5.5-1.31,23.2,23.2,0,0,0,5.52,1,39.05,39.05,0,0,0,5.62-.06c1.87-.1,3.73-.35,5.59-.63S162.75,263.64,164.6,263.26Z"/><path class="cls-7" d="M155.93,236.71a7.18,7.18,0,0,0-1,2,14.49,14.49,0,0,0-.54,2.23,19.57,19.57,0,0,0-.26,2.29c0,.76,0,1.53,0,2.29v.15l-.14,0c-1.14.24-2.28.45-3.43.61s-2.31.28-3.47.33a33.66,33.66,0,0,1-3.48,0,19.43,19.43,0,0,1-3.47-.47l-.13,0V246c0-1.31.14-2.62.3-3.91a15.43,15.43,0,0,1,.89-3.81,15.55,15.55,0,0,0-.68,3.83c-.12,1.29-.18,2.6-.18,3.89l-.13-.16a28,28,0,0,0,6.85.39c1.15-.06,2.3-.15,3.44-.3s2.27-.35,3.4-.57l-.14.18c0-.78,0-1.55.1-2.33a19.9,19.9,0,0,1,.33-2.3,12.41,12.41,0,0,1,.66-2.23A6.88,6.88,0,0,1,155.93,236.71Z"/><path class="cls-7" d="M155.27,238.36a29,29,0,0,1,3.06,7.69,15.19,15.19,0,0,1-.14,8.27,9.58,9.58,0,0,1-2.24,3.53,11.37,11.37,0,0,1-3.48,2.33,20.34,20.34,0,0,1-8.24.6,31.6,31.6,0,0,0,4.13-.09,13.75,13.75,0,0,0,4-.81,12,12,0,0,0,3.32-2.3,9.17,9.17,0,0,0,2.12-3.41,15.06,15.06,0,0,0,.22-8A32.74,32.74,0,0,0,155.27,238.36Z"/><polygon class="cls-9" points="148.02 245.14 148.11 247.66 145.01 247.66 145.01 245.2 148.02 245.14"/><path class="cls-7" d="M181.07,255.87a7.91,7.91,0,0,1,0,2.38,9.48,9.48,0,0,1-.28,1.17,2.12,2.12,0,0,1-.67,1,3.31,3.31,0,0,0,.35-1.09c.07-.38.14-.76.18-1.15C180.81,257.43,180.88,256.65,181.07,255.87Z"/><path class="cls-7" d="M164,256.89a14.6,14.6,0,0,1-1.4-2.37c-.18-.42-.38-.84-.53-1.27a4.69,4.69,0,0,1-.33-1.35c.19.42.42.81.63,1.22l.61,1.22A19.65,19.65,0,0,1,164,256.89Z"/><path class="cls-7" d="M171.14,252.19a4,4,0,0,1-1.23-.48,4.31,4.31,0,0,1-1-.85,4,4,0,0,1,1.24.48A3.69,3.69,0,0,1,171.14,252.19Z"/><path class="cls-7" d="M136.75,234a1.7,1.7,0,0,1-.79.21,1.64,1.64,0,0,1-.79-.21,1.55,1.55,0,0,1,.79-.22A1.6,1.6,0,0,1,136.75,234Z"/><path class="cls-7" d="M137.21,223.07a18.85,18.85,0,0,1-5.6.52,16.65,16.65,0,0,1,2.78-.47A17.67,17.67,0,0,1,137.21,223.07Z"/><path class="cls-8" d="M161.25,224.47s-2.4-9-8.87-10.73c.49-.89,2.7-1.16,2.7-1.16S163.68,214.87,161.25,224.47Z"/><g class="cls-27"><path class="cls-4" d="M162.12,265.33c.62,7.88.92,15.79,1,23.7,0,4,0,7.91-.19,11.86a79.09,79.09,0,0,1-1.23,11.8,95.22,95.22,0,0,0,.91-11.81c.1-3.95.15-7.9.09-11.85s-.11-7.9-.21-11.85S162.27,269.28,162.12,265.33Z"/></g><g class="cls-27"><path class="cls-4" d="M159.71,265.84q.34,5.91.56,11.82c.15,3.94.23,7.88.31,11.83s.08,7.89,0,11.83a103.43,103.43,0,0,1-.74,11.81c.2-2,.3-3.93.33-5.9s.07-3.94.08-5.91q0-5.91-.1-11.83Z"/></g><g class="cls-27"><path class="cls-4" d="M156.79,266.17q.48,5.85.84,11.71c.25,3.91.43,7.82.61,11.73s.29,7.82.32,11.74c0,1.95,0,3.91,0,5.87-.05,1-.05,2-.15,2.93l-.12,1.47-.26,1.44.2-1.45.08-1.46c.06-1,0-2,0-2.93,0-2,0-3.91-.08-5.87q-.15-5.87-.41-11.73Z"/></g><g class="cls-27"><path class="cls-4" d="M154.48,266.28c-.07,2,0,3.94.06,5.9l.15,5.91.33,11.8q.15,5.89.4,11.8c.08,2,.18,3.93.3,5.89a57.67,57.67,0,0,0,.54,5.87,100.31,100.31,0,0,1-1.16-11.75c-.23-3.93-.37-7.86-.51-11.8s-.19-7.87-.23-11.81S154.27,270.21,154.48,266.28Z"/></g><g class="cls-27"><path class="cls-4" d="M151.44,266.28c.12,2.64.24,5.28.32,7.92l.22,7.92v0c-.48,2.85-.95,5.71-1.39,8.57-.23,1.43-.44,2.86-.64,4.3s-.4,2.87-.51,4.31a86.85,86.85,0,0,1,.82-8.66q.58-4.31,1.31-8.59v0l-.11-7.93Q151.4,270.24,151.44,266.28Z"/></g><g class="cls-27"><path class="cls-4" d="M148.56,266.28a112.54,112.54,0,0,1,.65,11.75,74.54,74.54,0,0,1-.9,11.75l-1.65,11.65q-.84,5.82-1.76,11.63c.45-3.89.93-7.79,1.44-11.67l1.55-11.67c.27-1.94.58-3.88.72-5.82s.24-3.91.27-5.87C148.93,274.12,148.83,270.19,148.56,266.28Z"/></g><g class="cls-27"><path class="cls-4" d="M146.4,265.84c.18,4,.27,7.91.19,11.86,0,2-.12,4-.33,5.94-.09,1-.29,2-.46,2.94s-.3,1.94-.42,2.92c-.53,3.91-.94,7.85-1.37,11.77l-1.28,11.79q.41-5.91,1-11.82c.37-3.94.78-7.87,1.28-11.79.13-1,.27-2,.44-2.94s.38-1.93.48-2.92c.22-1.95.3-3.93.39-5.9C146.4,273.75,146.43,269.79,146.4,265.84Z"/></g><g class="cls-27"><path class="cls-4" d="M140.12,313.13l1.47-11.69,1.52-11.69c.49-3.89,1.07-7.82,1.34-11.68-.26-3.93-.17-7.86-.13-11.79l.16,5.89c.06,2,.11,3.93.29,5.88,0,2-.33,3.94-.53,5.9l-.71,5.85c-.53,3.9-1.05,7.79-1.62,11.68S140.75,309.25,140.12,313.13Z"/></g><g class="cls-27"><path class="cls-4" d="M143.07,265.84c0,3.81-.25,7.61-.48,11.42q-.17,2.85-.45,5.7a26.19,26.19,0,0,1-.43,2.85c-.19.9-.31,1.86-.44,2.79-.52,3.77-.94,7.56-1.39,11.34l-1.36,11.34c.61-7.6,1.37-15.17,2.33-22.73.14-.95.25-1.89.47-2.84a23.32,23.32,0,0,0,.43-2.8c.21-1.88.35-3.78.52-5.68l.43-5.69C142.83,269.64,143,267.74,143.07,265.84Z"/></g><path class="cls-7" d="M152.22,285c-.26-1.09-.47-2.19-.68-3.29s-.37-2.21-.56-3.31l.13.16c-1-.41-2.09-.81-3.13-1.24s-2.06-.86-3.08-1.34c1.08.31,2.14.67,3.2,1s2.11.76,3.16,1.15l.12,0,0,.12c.15,1.11.33,2.22.46,3.33S152.13,283.89,152.22,285Z"/><path class="cls-7" d="M154.42,221.38a8.85,8.85,0,0,0-.91.93,5.16,5.16,0,0,0-.68,1.06,4.09,4.09,0,0,0-.44,1.18,8.55,8.55,0,0,0-.21,1.28,3.56,3.56,0,0,1-.12-1.34,4,4,0,0,1,.39-1.31A3.72,3.72,0,0,1,154.42,221.38Z"/><path class="cls-7" d="M150.6,221.38a8.92,8.92,0,0,0-1.25,1.11,6.49,6.49,0,0,0-1,1.31,4.82,4.82,0,0,0-.6,1.51,7.47,7.47,0,0,0-.21,1.66,4.34,4.34,0,0,1-.12-1.72,4.73,4.73,0,0,1,.56-1.66A5.15,5.15,0,0,1,150.6,221.38Z"/><path class="cls-7" d="M145.32,223.07a6,6,0,0,0-.42,1.21c-.1.41-.2.82-.26,1.24-.17.84-.23,1.69-.41,2.55a7.17,7.17,0,0,1-.12-1.31,9.67,9.67,0,0,1,.12-1.31,7.06,7.06,0,0,1,.36-1.27A3.07,3.07,0,0,1,145.32,223.07Z"/><path class="cls-7" d="M155.93,224.7a4.87,4.87,0,0,1,.85,2.93,3.84,3.84,0,0,1-.42,1.51,3.11,3.11,0,0,1-1.05,1.11,5.43,5.43,0,0,0,.76-1.25,4.22,4.22,0,0,0,.29-1.4,6.34,6.34,0,0,0-.09-1.44A11,11,0,0,0,155.93,224.7Z"/><path class="cls-7" d="M151.35,216.84a6.92,6.92,0,0,0-1.8,1.09,9.39,9.39,0,0,0-1.44,1.56,2.93,2.93,0,0,1,.43-1,3.54,3.54,0,0,1,.74-.85A3.2,3.2,0,0,1,151.35,216.84Z"/><path class="cls-7" d="M149.43,225.83a4.89,4.89,0,0,0-.52,2.2,6.19,6.19,0,0,0,.52,2.22,3.16,3.16,0,0,1-.68-1,3.32,3.32,0,0,1-.26-1.21A3,3,0,0,1,149.43,225.83Z"/></g></g></g></svg>