<svg xmlns="http://www.w3.org/2000/svg" viewBox="0 0 362.8 357.9"><defs><style>.cls-1{fill:#fff;}</style></defs><g id="Layer_2" data-name="Layer 2"><g id="logo"><g id="White_shad_logo_farsgraphic" data-name="White shad logo farsgraphic"><path class="cls-1" d="M.1,234.5V187.6c0-.5-.4-1.2.4-1.5s1.1.4,1.5.8l16.8,16.9,38.2,38,27.9,28c2.6,2.7,2.6,2.7,5.3,0l26.7-26.5L145,215.2l31.6-31.3c1.4-2.3,2.7-1.6,4.1-.2l42.1,42.5c10,10.1,19.9,20.1,29.7,30.3,5,5.2,10.4,9.9,15.2,15.4,1.4,1.6,2.7,1.3,4-.1l12.7-12.6,13.7-13.9c7.6-7.7,15.1-15.4,22.7-23l27.1-27c4.1-4,8.2-8,12.2-12.1.5-.4.9-1,1.5-.6a1.8,1.8,0,0,1,1.1,1.3v2.3q0,45.3.1,90.8a4.6,4.6,0,0,1-1.6,3.6q-16.5,16.3-32.7,32.8l-29.7,30c-5.5,5.5-11.1,10.9-19,13.1a36,36,0,0,1-19.8.1c-7.3-1.9-12.7-6.5-17.8-11.7-9.8-10.1-19.8-20.1-29.7-30.1l-31.9-32.3c-2.1-2.1-2.4-2.2-4.4-.2l-43.9,43.9c-6.9,6.9-13.7,14-20.9,20.7-9.4,8.6-20.3,11.4-32.8,8.2-6.9-1.8-12.3-5.5-17.1-10.5s-10.8-10.8-16.2-16.1L25.7,308.7c-5.4-5.3-10.9-10.6-16.2-16.1-2.9-3-6.2-5.5-8.7-8.8a4.6,4.6,0,0,1-.8-2.5V234.5Z"/><path class="cls-1" d="M222,154.8a52.4,52.4,0,1,1,104.8.5c0,28.6-23.8,52.1-52.5,52A52.4,52.4,0,0,1,222,154.8Z"/><path class="cls-1" d="M229.4,52.5c.3,28-23.2,52.1-51,52.4-29.7.3-53.7-22.7-53.9-51.7S147.3.3,176.9,0A52.4,52.4,0,0,1,229.4,52.5Z"/><path class="cls-1" d="M124.6,189.6c-42.9,35.6-92.6,5.1-92.7-36.1,0-29.5,23.2-53.1,52.4-53.1C125.1,100.5,154.5,146,124.6,189.6Z"/></g></g></g></svg>